<svg width="91" height="85" viewBox="0 0 91 85" fill="none" xmlns="http://www.w3.org/2000/svg">
<mask id="mask0_296_10" style="mask-type:luminance" maskUnits="userSpaceOnUse" x="32" y="70" width="6" height="1">
<path d="M37.4719 70.789C37.1688 70.7996 36.8516 70.7882 36.525 70.7526C35.0664 70.8035 33.6289 70.7491 32.2188 70.5957C32.8647 70.6605 33.7273 70.7425 34.3761 70.7664C35.3043 70.8005 36.5432 70.8018 37.4719 70.789Z" fill="white"/>
</mask>
<g mask="url(#mask0_296_10)">
<path d="M37.472 70.789C35.4641 70.8166 34.5477 70.8291 32.2188 70.5957C33.629 70.7492 35.0665 70.8036 36.525 70.7526C36.8518 70.7882 37.1689 70.7996 37.472 70.789Z" fill="#007BFF"/>
</g>
<mask id="mask1_296_10" style="mask-type:luminance" maskUnits="userSpaceOnUse" x="36" y="70" width="3" height="1">
<path d="M38.9742 70.7364C38.4755 70.7538 37.9768 70.7712 37.4781 70.7886C37.175 70.7991 36.8579 70.7878 36.5312 70.7522L37.9943 70.7012C38.3208 70.7367 38.6494 70.7477 38.9742 70.7364Z" fill="white"/>
</mask>
<g mask="url(#mask1_296_10)">
<path d="M36.5312 70.7522L37.9943 70.7012C38.3209 70.7367 38.6495 70.7477 38.9742 70.7364L38.8964 70.7391L38.819 70.7418L38.7421 70.7445L38.6655 70.7471L38.5894 70.7498L38.5137 70.7524L38.4382 70.7551L38.3631 70.7578L38.2883 70.7604L38.2138 70.763L38.1395 70.7656L38.0654 70.7682L37.9916 70.7708L37.9179 70.7733L37.8444 70.7759L37.771 70.7785L37.6978 70.781L37.6245 70.7836L37.5514 70.7861L37.4782 70.7887C37.175 70.7991 36.8579 70.7877 36.5312 70.7522Z" fill="#0080FF"/>
</g>
<mask id="mask2_296_10" style="mask-type:luminance" maskUnits="userSpaceOnUse" x="31" y="70" width="6" height="1">
<path d="M32.2174 70.5951L31.2266 70.4873C32.6368 70.6408 34.0743 70.6952 35.5328 70.6442L36.5237 70.7521C35.065 70.803 33.6276 70.7486 32.2174 70.5951Z" fill="white"/>
</mask>
<g mask="url(#mask2_296_10)">
<path d="M35.5328 70.6452L36.5237 70.7531C35.065 70.8039 33.6276 70.7495 32.2174 70.5961L31.2266 70.4883C32.6368 70.6417 34.0743 70.6961 35.5328 70.6452Z" fill="#0080FF"/>
</g>
<path d="M37.0021 70.5938L37.9929 70.7015L36.5299 70.7526L35.5391 70.6448L37.0021 70.5938Z" fill="#007BFF"/>
<mask id="mask3_296_10" style="mask-type:luminance" maskUnits="userSpaceOnUse" x="46" y="69" width="12" height="16">
<path d="M57.7751 69.3682C56.2104 72.0314 54.6458 74.6944 53.0811 77.3576C52.967 77.5519 52.8148 77.8109 52.7006 78.0053C52.4811 78.3791 52.1881 78.8776 51.9685 79.2515C51.7612 79.6043 51.4848 80.0746 51.2776 80.4274C51.1789 80.5954 51.0473 80.8194 50.9487 80.9874C50.8535 81.1494 50.6806 81.3463 50.6312 81.5276L50.0326 82.5465C49.3573 83.6959 48.1029 84.3784 46.6562 84.221L54.9472 70.1093C56.3938 70.2666 57.4283 69.9585 57.7751 69.3682Z" fill="white"/>
</mask>
<g mask="url(#mask3_296_10)">
<path d="M46.6562 84.2211L54.9472 70.1094C54.9762 70.1126 55.005 70.1155 55.0336 70.1183L54.619 70.8239L54.2044 71.5295L53.7899 72.2351L53.3753 72.9408L52.9607 73.6464L52.5462 74.3519L52.1316 75.0575L51.7171 75.7631L51.3025 76.4687L50.888 77.1742L50.4734 77.8798L50.0589 78.5853L49.6444 79.2908L49.2299 79.9963L48.8153 80.7018L48.4009 81.4073L47.9864 82.1129L47.5719 82.8184L47.1574 83.5239L46.7429 84.2294C46.7141 84.227 46.6852 84.2242 46.6562 84.2211Z" fill="#009EFF"/>
<path d="M46.7422 84.2292L47.1566 83.5238L47.5712 82.8182L47.9856 82.1127L48.4001 81.4072L48.8146 80.7016L49.2291 79.9962L49.6436 79.2906L50.0582 78.5851L50.4727 77.8796L50.8873 77.1741L51.3018 76.4685L51.7163 75.7629L52.1309 75.0574L52.5454 74.3518L52.96 73.6462L53.3745 72.9406L53.7891 72.235L54.2037 71.5294L54.6183 70.8238L55.0329 70.1182C55.3638 70.1502 55.6723 70.1577 55.9551 70.1426L47.7041 84.1862C47.3974 84.242 47.0751 84.2579 46.7422 84.2292Z" fill="#0099FF"/>
<path d="M47.7031 84.1864L55.9541 70.1428C56.2276 70.1282 56.4769 70.0926 56.699 70.0381L48.5451 83.9165C48.2818 84.041 47.9997 84.1324 47.7031 84.1864Z" fill="#0094FF"/>
<path d="M48.5469 83.9161L56.7008 70.0378C56.901 69.9887 57.0791 69.9241 57.2328 69.8457L49.2096 83.5016C49.0061 83.6647 48.7841 83.8039 48.5469 83.9161Z" fill="#008FFF"/>
<path d="M49.2109 83.5016L49.5662 82.8969L49.9275 82.282L50.2947 81.6572L50.6675 81.0227L51.0456 80.3789L51.4291 79.7263L51.8175 79.0651L52.2108 78.3957L52.6088 77.7184L53.0111 77.0336L53.4177 76.3416L53.8283 75.6426L54.2427 74.9373L54.6608 74.2257L55.0823 73.5083L55.507 72.7855L55.9348 72.0574L56.3654 71.3245L56.7986 70.5872L57.2342 69.8457C57.3666 69.7783 57.481 69.7004 57.5758 69.6133L49.6936 83.0293C49.5477 83.203 49.3862 83.3612 49.2109 83.5016Z" fill="#008AFF"/>
<path d="M49.6953 83.0294L57.5774 69.6134C57.6591 69.5384 57.7264 69.4564 57.7782 69.3682L57.3205 70.1472L56.8678 70.9178L56.4204 71.6792L55.9789 72.4308L55.5434 73.1719L55.1146 73.9017L54.6929 74.6195L54.2786 75.3248L53.8721 76.0166L53.4738 76.6944L53.0842 77.3575L52.7038 78.0052L52.3327 78.6368L51.9716 79.2514L51.6208 79.8485L51.2806 80.4274L50.9517 80.9873L50.6343 81.5276L50.3288 82.0475L50.0357 82.5464C49.9347 82.7182 49.8209 82.8797 49.6953 83.0294Z" fill="#0085FF"/>
</g>
<mask id="mask4_296_10" style="mask-type:luminance" maskUnits="userSpaceOnUse" x="54" y="70" width="4" height="1">
<path d="M57.6254 70.0852C57.0366 70.1057 56.4479 70.1263 55.8591 70.1468C55.5776 70.1566 55.272 70.1448 54.9453 70.1092L56.6785 70.0488C57.0051 70.0844 57.3223 70.0957 57.6254 70.0852Z" fill="white"/>
</mask>
<g mask="url(#mask4_296_10)">
<path d="M54.9453 70.1093L56.6785 70.0488C57.0051 70.0844 57.3223 70.0958 57.6254 70.0853L57.5387 70.0883L57.452 70.0913L57.3653 70.0944L57.2785 70.0974L57.1916 70.1004L57.1045 70.1034L57.0173 70.1064L56.93 70.1094L56.8424 70.1125L56.7547 70.1156L56.6666 70.1186L56.5783 70.1217L56.4898 70.1248L56.4008 70.1279L56.3115 70.131L56.2219 70.1341L56.1319 70.1373L56.0414 70.1405L55.9505 70.1437L55.8591 70.1469C55.5776 70.1567 55.272 70.1448 54.9453 70.1093Z" fill="#0080FF"/>
</g>
<path d="M53.955 70.002L54.9458 70.1097L46.6549 84.2214L45.6641 84.1136L53.955 70.002Z" fill="#0099FF"/>
<path d="M55.6863 69.9414L56.6771 70.0492L54.9439 70.1096L53.9531 70.0019L55.6863 69.9414Z" fill="#007BFF"/>
<mask id="mask5_296_10" style="mask-type:luminance" maskUnits="userSpaceOnUse" x="0" y="0" width="36" height="71">
<path d="M31.2344 70.4874C32.6447 70.6408 34.0822 70.6953 35.5407 70.6443C33.3518 70.4062 31.5626 69.1743 31.5451 67.8935C14.8863 68.4763 1.1741 54.3333 0.92808 36.3192C0.679119 18.3009 13.9898 3.21525 30.6485 2.63556C30.6335 1.54592 31.9057 0.771219 33.6336 0.710938C32.7477 0.757895 31.5679 0.84737 30.6851 0.934428C30.2019 0.982104 29.5603 1.07406 29.0825 1.15981C28.5172 1.26124 27.7601 1.38357 27.2028 1.52183C26.1496 1.78307 24.7451 2.14077 23.7179 2.49044C22.5041 2.90359 18.8101 4.16094 14.7125 7.15148C12.8488 8.51162 10.0974 10.838 7.57298 14.1971C5.50409 16.9501 3.84802 19.9795 2.65083 23.2012C2.42054 23.8209 1.71977 25.707 1.17874 28.2719C1.01213 29.0617 0.825806 30.1228 0.717065 30.9226C0.606887 31.7335 0.515322 32.8215 0.44962 33.6372C0.235926 36.2904 0.493901 40.2988 1.06112 42.9358C1.38009 44.4186 1.70997 45.952 2.5093 48.1557C3.38197 50.5613 4.3592 52.3968 4.73879 53.0744C5.09002 53.7011 5.57155 54.5307 5.96785 55.1299C6.47995 55.9042 7.18908 56.9207 7.76433 57.6492C9.30944 59.6058 10.7234 60.9918 11.6375 61.8102C12.0947 62.2194 12.7046 62.767 13.1941 63.1369C13.6855 63.5084 14.3328 64.0148 14.8353 64.371C15.2957 64.6975 15.9299 65.1031 16.4026 65.4115C17.2686 65.9765 19.0434 66.9501 20.5143 67.6015C22.9003 68.658 24.7324 69.1833 25.2371 69.3192C26.1147 69.5555 27.2912 69.8509 28.1833 70.0246C29.0922 70.2016 30.3164 70.3678 31.2344 70.4874Z" fill="white"/>
</mask>
<g mask="url(#mask5_296_10)">
<path d="M31.2267 70.4874C29.4695 70.2585 25.8131 69.7824 21.9902 68.2248C17.3123 66.3188 14.4665 64.2189 13.1864 63.1369C11.3065 61.5477 8.73183 59.3712 5.9602 55.1299C4.09325 52.2728 2.48336 48.6686 1.65386 45.4885C-2.18173 30.7849 2.94099 15.7367 14.7047 7.15141C22.739 1.28782 30.6483 0.868726 33.6258 0.710938C31.8979 0.771219 30.6257 1.54592 30.6407 2.63556C13.982 3.21525 0.671401 18.3009 0.920297 36.3192C1.16632 54.3333 14.8785 68.4763 31.5373 67.8935C31.5549 69.1743 33.344 70.4062 35.5329 70.6443C34.0744 70.6952 32.637 70.6408 31.2267 70.4874Z" fill="#00BDFF"/>
<path d="M30.6545 2.412C30.1807 2.86512 29.1338 2.57723 28.4821 2.64803C26.0223 2.91528 17.43 4.38965 10.1384 12.1399C1.44033 21.3851 0.973631 32.7235 0.949009 33.986C0.536316 55.1815 15.2888 67.2908 29.3789 67.9235C30.0257 67.9526 30.8896 67.9357 31.5371 67.9409C31.5975 69.2045 33.3695 70.4091 35.5313 70.6442C34.0726 70.6951 32.6352 70.6407 31.225 70.4873C29.332 70.2408 27.6972 70.0279 25.0781 69.2761L23.5137 68.7838C21.6447 68.0987 21.3079 67.9752 19.587 67.1738L17.9602 66.3321C15.8989 65.121 15.8596 65.0979 14.8259 64.3709L13.1847 63.1368C12.443 62.5046 11.4608 61.6528 10.7507 60.9853L9.19739 59.3673C8.62783 58.6888 7.86207 57.7886 7.32267 57.0858L5.95848 55.1297C5.52887 54.4113 4.9403 53.4619 4.5404 52.7265L3.44163 50.4872C3.13578 49.7299 2.70572 48.7286 2.42972 47.9599L1.65214 45.4884C1.46535 44.6943 1.18948 43.6411 1.03319 42.8404L0.620564 40.181C0.530828 39.0498 0.406545 37.5409 0.375 36.4065L0.440244 33.637C0.52051 32.8223 0.597249 31.7323 0.707884 30.9211L1.16936 28.2717C1.36412 27.4964 1.59564 26.4551 1.81887 25.6875L2.64145 23.201C2.94338 22.4709 3.32048 21.4864 3.64899 20.768L4.79361 18.4874C5.19775 17.8082 5.71468 16.8891 6.14383 16.2254L7.5636 14.1969C8.06936 13.5732 8.72631 12.7268 9.25578 12.1231L10.888 10.3971C11.5026 9.8314 12.3108 9.06388 12.9481 8.5239L14.7031 7.15135C15.4476 6.64513 16.4375 5.9648 17.204 5.49261L18.9657 4.50695C19.8788 4.06689 21.1043 3.49516 22.0387 3.10219L23.7086 2.49037C25.938 1.80586 26.0714 1.76491 27.5034 1.45469L29.0732 1.15981C30.9412 0.897135 31.4433 0.826471 33.6244 0.710938C32.0169 0.766908 30.8039 1.4411 30.6545 2.412Z" fill="#00BDFF"/>
<path d="M30.6682 2.33709C30.1782 2.77512 29.1421 2.48828 28.4881 2.553C26.7602 2.72418 17.754 3.98956 10.1175 12.1161C1.42205 21.3695 0.953256 32.7212 0.928373 33.9851C0.510911 55.2385 14.9246 67.175 29.3786 67.9815C30.0268 68.0177 30.8932 68.0217 31.5424 68.0131C31.6652 69.2501 33.4107 70.4136 35.5313 70.6442C34.0726 70.6951 32.6352 70.6407 31.225 70.4873C29.332 70.2408 27.6972 70.0279 25.0781 69.2761L23.5137 68.7838C21.6447 68.0987 21.3079 67.9752 19.587 67.1738L17.9602 66.3321C15.8989 65.121 15.8596 65.0979 14.8259 64.3709L13.1847 63.1368C12.443 62.5046 11.4608 61.6528 10.7507 60.9853L9.1974 59.3673C8.62783 58.6888 7.86207 57.7886 7.32267 57.0858L5.95848 55.1297C5.52887 54.4113 4.9403 53.4619 4.5404 52.7265L3.44163 50.4872C3.13578 49.7299 2.70572 48.7286 2.42972 47.9599L1.65214 45.4883C1.46535 44.6942 1.18948 43.6411 1.03319 42.8404L0.620566 40.181C0.53083 39.0498 0.406545 37.5409 0.375 36.4065L0.440246 33.637C0.520512 32.8223 0.597251 31.7323 0.707886 30.9211L1.16937 28.2717C1.36412 27.4964 1.59564 26.4551 1.81887 25.6876L2.64145 23.201C2.94338 22.4709 3.32048 21.4864 3.64899 20.768L4.79361 18.4874C5.19775 17.8082 5.71468 16.8891 6.14383 16.2254L7.5636 14.1969C8.06936 13.5732 8.72631 12.7268 9.25578 12.1231L10.888 10.3971C11.5026 9.83141 12.3108 9.06389 12.9481 8.5239L14.7031 7.15135C15.4476 6.64513 16.4375 5.9648 17.204 5.49261L18.9657 4.50695C19.8788 4.06689 21.1043 3.49517 22.0387 3.1022L23.7086 2.49037C25.938 1.80586 26.0714 1.76491 27.5034 1.45469L29.0732 1.15981C30.9412 0.897135 31.4433 0.826471 33.6244 0.710938C32.0585 0.765471 30.8671 1.40662 30.6682 2.33709Z" fill="#00B8FF"/>
<path d="M30.6851 2.26818C30.3327 2.56273 29.6175 2.36105 29.16 2.40083C26.615 2.6221 17.7192 3.97499 10.0976 12.0932C4.60415 17.9445 1.34067 25.7193 0.908256 33.9852C0.0174286 51.014 11.5901 65.8887 27.2545 67.8488C28.5344 68.0089 30.2588 68.0476 31.5485 68.0664C31.7145 69.2838 33.4406 70.4178 35.5313 70.6452C34.0726 70.6961 32.6352 70.6417 31.225 70.4883C29.332 70.2418 27.6972 70.0289 25.0781 69.2771L23.5137 68.7847C21.6447 68.0996 21.3079 67.9762 19.587 67.1748L17.9602 66.3331C15.8989 65.122 15.8596 65.0988 14.8259 64.3719L13.1847 63.1378C12.443 62.5056 11.4608 61.6537 10.7507 60.9863L9.1974 59.3683C8.62783 58.6898 7.86207 57.7895 7.32267 57.0868L5.95848 55.1307C5.52887 54.4122 4.9403 53.4629 4.5404 52.7275L3.44163 50.4881C3.13578 49.7309 2.70572 48.7296 2.42972 47.9609L1.65214 45.4893C1.46535 44.6952 1.18948 43.6421 1.03319 42.8414L0.620566 40.182C0.53083 39.0508 0.406545 37.5418 0.375 36.4075L0.440246 33.638C0.520512 32.8232 0.597251 31.7333 0.707886 30.9221L1.16937 28.2726C1.36412 27.4974 1.59564 26.4561 1.81887 25.6885L2.64145 23.202C2.94338 22.4719 3.32048 21.4874 3.64899 20.769L4.79361 18.4884C5.19775 17.8092 5.71468 16.89 6.14383 16.2264L7.5636 14.1979C8.06936 13.5742 8.72631 12.7278 9.25578 12.124L10.888 10.398C11.5026 9.83238 12.3108 9.06486 12.9481 8.52488L14.7031 7.15232C15.4476 6.64611 16.4375 5.96577 17.204 5.49358L18.9657 4.50792C19.8788 4.06786 21.1043 3.49614 22.0387 3.10317L23.7086 2.49135C25.938 1.80683 26.0714 1.76589 27.5034 1.45566L29.0732 1.16079C30.9412 0.898112 31.4433 0.827447 33.6244 0.711914C32.0979 0.764946 30.9273 1.37553 30.6851 2.26818Z" fill="#00B3FF"/>
<path d="M30.7049 2.20118C-0.369796 5.2716 -8.11595 44.0738 12.2893 61.2734C20.1972 67.939 28.1575 68.0642 31.5566 68.1177C31.7641 69.3151 33.4705 70.4201 35.5313 70.6442C34.0726 70.6951 32.6352 70.6407 31.225 70.4873C29.332 70.2408 27.6972 70.0279 25.0781 69.2761L23.5137 68.7838C21.6447 68.0987 21.3079 67.9752 19.587 67.1738L17.9602 66.3321C15.8989 65.121 15.8596 65.0979 14.8259 64.3709L13.1847 63.1368C12.443 62.5046 11.4608 61.6528 10.7507 60.9853L9.19739 59.3673C8.62783 58.6888 7.86207 57.7886 7.32267 57.0858L5.95848 55.1297C5.52887 54.4113 4.9403 53.4619 4.5404 52.7265L3.44163 50.4872C3.13578 49.7299 2.70572 48.7286 2.42972 47.9599L1.65214 45.4884C1.46535 44.6943 1.18948 43.6411 1.03319 42.8404L0.620564 40.181C0.530828 39.0498 0.406545 37.5409 0.375 36.4065L0.440244 33.637C0.52051 32.8223 0.597249 31.7323 0.707884 30.9211L1.16936 28.2717C1.36412 27.4964 1.59564 26.4551 1.81887 25.6875L2.64145 23.201C2.94338 22.4709 3.32048 21.4864 3.64899 20.768L4.79361 18.4874C5.19775 17.8082 5.71468 16.8891 6.14383 16.2254L7.5636 14.1969C8.06936 13.5732 8.72631 12.7268 9.25578 12.1231L10.888 10.3971C11.5026 9.8314 12.3108 9.06388 12.9481 8.5239L14.7031 7.15135C15.4476 6.64513 16.4375 5.9648 17.204 5.49261L18.9657 4.50695C19.8788 4.06689 21.1043 3.49516 22.0387 3.10219L23.7086 2.49037C25.938 1.80586 26.0714 1.76491 27.5034 1.45469L29.0732 1.15981C30.9412 0.897135 31.4433 0.826471 33.6244 0.710938C32.1359 0.762728 30.9858 1.34457 30.7049 2.20118Z" fill="#00AEFF"/>
<path d="M30.7298 2.13189C30.2003 2.53426 29.1859 2.28752 28.5242 2.3542C26.7942 2.52858 17.7735 3.81532 10.0592 12.0438C6.88059 15.4342 1.45993 22.7929 0.869199 33.9828C0.103114 48.4923 9.09048 65.3238 27.2553 67.9382C28.5105 68.1188 28.7998 68.1235 31.5663 68.1685C31.8125 69.3462 33.4997 70.4232 35.5313 70.6442C34.0726 70.6951 32.6352 70.6407 31.225 70.4873C29.332 70.2408 27.6972 70.0279 25.0781 69.2761L23.5137 68.7838C21.6447 68.0987 21.3079 67.9752 19.587 67.1738L17.9602 66.3321C15.8989 65.121 15.8596 65.0979 14.8259 64.3709L13.1847 63.1368C12.443 62.5046 11.4608 61.6528 10.7507 60.9853L9.19739 59.3673C8.62783 58.6888 7.86207 57.7886 7.32267 57.0858L5.95848 55.1297C5.52887 54.4113 4.9403 53.4619 4.5404 52.7265L3.44163 50.4872C3.13578 49.7299 2.70572 48.7286 2.42972 47.9599L1.65214 45.4884C1.46535 44.6943 1.18948 43.6411 1.03319 42.8404L0.620564 40.181C0.530828 39.0498 0.406545 37.5409 0.375 36.4065L0.440244 33.637C0.52051 32.8223 0.597249 31.7323 0.707884 30.9211L1.16936 28.2717C1.36412 27.4964 1.59564 26.4551 1.81887 25.6875L2.64145 23.201C2.94338 22.4709 3.32048 21.4864 3.64899 20.768L4.79361 18.4874C5.19775 17.8082 5.71468 16.8891 6.14383 16.2254L7.5636 14.1969C8.06936 13.5732 8.72631 12.7268 9.25578 12.1231L10.888 10.3971C11.5026 9.8314 12.3108 9.06388 12.9481 8.5239L14.7031 7.15135C15.4476 6.64513 16.4375 5.9648 17.204 5.49261L18.9657 4.50695C19.8788 4.06689 21.1043 3.49516 22.0387 3.10219L23.7086 2.49037C25.938 1.80586 26.0714 1.76491 27.5034 1.45469L29.0732 1.15981C30.9412 0.897135 31.4433 0.826471 33.6244 0.710938C32.1764 0.761291 31.0487 1.31336 30.7298 2.13189Z" fill="#00A8FF"/>
<path d="M30.7612 2.05796C30.439 2.2855 29.8445 2.13959 29.4518 2.1746C23.1829 2.73293 15.9851 6.08386 11.5408 10.5129C3.27091 18.7546 1.41127 27.3117 1.03881 31.679C-0.745327 52.5976 12.2962 64.9811 25.1683 67.6344C27.6902 68.1542 29.8458 68.1903 31.5779 68.2193C31.8611 69.377 33.5289 70.4264 35.5313 70.6442C34.0726 70.6951 32.6352 70.6407 31.225 70.4873C29.332 70.2408 27.6972 70.0279 25.0781 69.2761L23.5137 68.7838C21.6447 68.0987 21.3079 67.9752 19.587 67.1738L17.9602 66.3321C15.8989 65.121 15.8596 65.0979 14.8259 64.3709L13.1847 63.1368C12.443 62.5046 11.4608 61.6528 10.7507 60.9853L9.19739 59.3673C8.62783 58.6888 7.86207 57.7886 7.32267 57.0858L5.95848 55.1297C5.52887 54.4113 4.9403 53.4619 4.5404 52.7265L3.44163 50.4872C3.13578 49.7299 2.70572 48.7286 2.42972 47.9599L1.65214 45.4883C1.46535 44.6942 1.18948 43.6411 1.03319 42.8404L0.620564 40.181C0.530828 39.0498 0.406545 37.5409 0.375 36.4065L0.440244 33.637C0.52051 32.8223 0.597249 31.7323 0.707884 30.9211L1.16936 28.2717C1.36412 27.4964 1.59564 26.4551 1.81887 25.6876L2.64145 23.201C2.94338 22.4709 3.32048 21.4864 3.64899 20.768L4.79361 18.4874C5.19775 17.8082 5.71468 16.8891 6.14383 16.2254L7.5636 14.1969C8.06936 13.5732 8.72631 12.7268 9.25578 12.1231L10.888 10.3971C11.5026 9.83141 12.3108 9.06389 12.9481 8.5239L14.7031 7.15135C15.4476 6.64513 16.4375 5.9648 17.204 5.49261L18.9657 4.50695C19.8788 4.06689 21.1043 3.49517 22.0387 3.1022L23.7086 2.49037C25.938 1.80586 26.0714 1.76491 27.5034 1.45469L29.0732 1.15981C30.9412 0.897135 31.4433 0.826471 33.6244 0.710938C32.2205 0.759855 31.1176 1.28024 30.7612 2.05796Z" fill="#00A3FF"/>
<path d="M30.8017 1.97729C30.6326 2.08799 30.3317 2.01622 30.1303 2.03294C19.6139 2.9043 12.7855 9.22591 11.5235 10.4844C3.25517 18.7288 1.39122 27.3011 1.01608 31.6771C-0.778569 52.6105 12.2781 65.0143 25.1688 67.6804C27.689 68.2016 29.242 68.2315 31.5928 68.2767C31.9155 69.4119 33.5615 70.4309 35.5313 70.6452C34.0726 70.6961 32.6352 70.6417 31.225 70.4883C29.332 70.2418 27.6972 70.0289 25.0781 69.2771L23.5137 68.7847C21.6447 68.0996 21.3079 67.9762 19.587 67.1748L17.9602 66.3331C15.8989 65.122 15.8596 65.0988 14.8259 64.3719L13.1847 63.1378C12.443 62.5056 11.4608 61.6537 10.7507 60.9863L9.1974 59.3683C8.62783 58.6898 7.86207 57.7895 7.32267 57.0868L5.95848 55.1307C5.52887 54.4122 4.9403 53.4629 4.5404 52.7275L3.44163 50.4881C3.13578 49.7309 2.70572 48.7296 2.42972 47.9609L1.65214 45.4893C1.46535 44.6952 1.18948 43.6421 1.03319 42.8414L0.620566 40.182C0.53083 39.0508 0.406545 37.5418 0.375 36.4075L0.440246 33.638C0.520512 32.8232 0.597251 31.7333 0.707886 30.9221L1.16937 28.2726C1.36412 27.4974 1.59564 26.4561 1.81887 25.6885L2.64145 23.202C2.94338 22.4719 3.32048 21.4874 3.64899 20.769L4.79361 18.4884C5.19775 17.8092 5.71468 16.89 6.14383 16.2264L7.5636 14.1979C8.06936 13.5742 8.72631 12.7278 9.25578 12.124L10.888 10.398C11.5026 9.83238 12.3108 9.06486 12.9481 8.52488L14.7031 7.15232C15.4476 6.64611 16.4375 5.96577 17.204 5.49358L18.9657 4.50792C19.8788 4.06786 21.1043 3.49614 22.0387 3.10317L23.7086 2.49135C25.938 1.80683 26.0714 1.76589 27.5034 1.45566L29.0732 1.16079C30.9412 0.898112 31.4433 0.827447 33.6244 0.711914C32.2701 0.758937 31.1959 1.24484 30.8017 1.97729Z" fill="#009EFF"/>
<path d="M30.8574 1.88162C30.7147 1.96796 30.4696 1.91486 30.3033 1.92916C22.0321 2.63902 15.1702 6.79737 11.5066 10.4523C3.24256 18.6966 1.373 27.2867 0.994203 31.6735C-0.813054 52.5992 12.2598 65.0301 25.1709 67.7245C27.7328 68.2591 29.7929 68.2988 31.6105 68.3338C31.9718 69.4455 33.5952 70.4336 35.5313 70.6442C34.0726 70.6951 32.6352 70.6407 31.225 70.4873C29.332 70.2408 27.6972 70.0279 25.0781 69.2761L23.5137 68.7838C21.6447 68.0987 21.3079 67.9752 19.587 67.1738L17.9602 66.3321C15.8989 65.121 15.8596 65.0979 14.8259 64.3709L13.1847 63.1368C12.443 62.5046 11.4608 61.6528 10.7507 60.9853L9.19739 59.3673C8.62783 58.6888 7.86207 57.7886 7.32267 57.0858L5.95848 55.1297C5.52887 54.4113 4.9403 53.4619 4.5404 52.7265L3.44163 50.4872C3.13578 49.7299 2.70572 48.7286 2.42972 47.9599L1.65214 45.4884C1.46535 44.6943 1.18948 43.6411 1.03319 42.8404L0.620564 40.181C0.530828 39.0498 0.406545 37.5409 0.375 36.4065L0.440244 33.637C0.52051 32.8223 0.597249 31.7323 0.707884 30.9211L1.16936 28.2717C1.36412 27.4964 1.59564 26.4551 1.81887 25.6875L2.64145 23.201C2.94338 22.4709 3.32048 21.4864 3.64899 20.768L4.79361 18.4874C5.19775 17.8082 5.71468 16.8891 6.14383 16.2254L7.5636 14.1969C8.06936 13.5732 8.72631 12.7268 9.25578 12.1231L10.888 10.3971C11.5026 9.8314 12.3108 9.06388 12.9481 8.5239L14.7031 7.15135C15.4476 6.64513 16.4375 5.9648 17.204 5.49261L18.9657 4.50695C19.8788 4.06689 21.1043 3.49516 22.0387 3.10219L23.7086 2.49037C25.938 1.80586 26.0714 1.76491 27.5034 1.45469L29.0732 1.15981C30.9412 0.897135 31.4433 0.826471 33.6244 0.710938C32.3294 0.756001 31.2906 1.20226 30.8574 1.88162Z" fill="#0099FF"/>
<path d="M30.9379 1.76785C30.6904 1.90487 30.281 1.83139 29.9995 1.85863C21.8915 2.64287 15.027 6.90062 11.6122 10.3084C9.34042 12.5755 2.4273 19.4745 0.972783 31.6718C-0.946872 47.7698 8.57721 63.0739 23.1267 67.2707C26.6576 68.2892 29.0755 68.3457 31.6353 68.4056C32.0411 69.4882 33.6364 70.439 35.5313 70.6452C34.0726 70.6961 32.6352 70.6417 31.225 70.4883C29.332 70.2418 27.6972 70.0289 25.0781 69.2771L23.5137 68.7847C21.6447 68.0996 21.3079 67.9762 19.587 67.1748L17.9602 66.3331C15.8989 65.122 15.8596 65.0988 14.8259 64.3719L13.1847 63.1378C12.443 62.5056 11.4608 61.6537 10.7507 60.9863L9.1974 59.3683C8.62783 58.6898 7.86207 57.7895 7.32267 57.0868L5.95848 55.1307C5.52887 54.4122 4.9403 53.4629 4.5404 52.7275L3.44163 50.4881C3.13578 49.7309 2.70572 48.7296 2.42972 47.9609L1.65214 45.4893C1.46535 44.6952 1.18948 43.6421 1.03319 42.8414L0.620566 40.182C0.53083 39.0508 0.406545 37.5418 0.375 36.4075L0.440246 33.638C0.520512 32.8232 0.597251 31.7333 0.707886 30.9221L1.16937 28.2726C1.36412 27.4974 1.59564 26.4561 1.81887 25.6885L2.64145 23.202C2.94338 22.4719 3.32048 21.4874 3.64899 20.769L4.79361 18.4884C5.19775 17.8092 5.71468 16.89 6.14383 16.2264L7.5636 14.1979C8.06936 13.5742 8.72631 12.7278 9.25578 12.124L10.888 10.398C11.5026 9.83238 12.3108 9.06486 12.9481 8.52488L14.7031 7.15232C15.4476 6.64611 16.4375 5.96577 17.204 5.49358L18.9657 4.50792C19.8788 4.06786 21.1043 3.49614 22.0387 3.10317L23.7086 2.49135C25.938 1.80683 26.0714 1.76589 27.5034 1.45566L29.0732 1.16079C30.9412 0.898112 31.4433 0.827447 33.6244 0.711914C32.4037 0.7543 31.4107 1.15321 30.9379 1.76785Z" fill="#0094FF"/>
<path d="M31.0606 1.62527C30.5708 1.86875 29.7927 1.77131 29.2493 1.83387C26.2953 2.17414 18.6496 3.68815 11.4726 10.382C5.1984 16.2337 2.06045 24.2847 1.27974 29.401C-1.70813 48.9807 9.09884 62.2282 21.1346 66.6713C25.8474 68.4111 29.9262 68.4638 31.6679 68.4863C32.1209 69.5352 33.6837 70.4442 35.5313 70.6452C34.0726 70.6961 32.6352 70.6417 31.225 70.4883C29.332 70.2418 27.6972 70.0289 25.0781 69.2771L23.5137 68.7847C21.6447 68.0996 21.3079 67.9762 19.587 67.1748L17.9602 66.3331C15.8989 65.122 15.8596 65.0988 14.8259 64.3719L13.1847 63.1378C12.443 62.5056 11.4608 61.6537 10.7507 60.9863L9.19739 59.3683C8.62783 58.6898 7.86207 57.7895 7.32267 57.0868L5.95848 55.1307C5.52887 54.4122 4.9403 53.4629 4.5404 52.7275L3.44163 50.4881C3.13578 49.7309 2.70572 48.7296 2.42972 47.9609L1.65214 45.4893C1.46535 44.6952 1.18948 43.6421 1.03319 42.8414L0.620564 40.182C0.530828 39.0508 0.406545 37.5418 0.375 36.4075L0.440244 33.638C0.52051 32.8232 0.597249 31.7333 0.707884 30.9221L1.16936 28.2726C1.36412 27.4974 1.59564 26.4561 1.81887 25.6885L2.64145 23.202C2.94338 22.4719 3.32048 21.4874 3.64899 20.769L4.79361 18.4884C5.19775 17.8092 5.71468 16.89 6.14383 16.2264L7.5636 14.1979C8.06936 13.5742 8.72631 12.7278 9.25578 12.124L10.888 10.398C11.5026 9.83238 12.3108 9.06486 12.9481 8.52488L14.7031 7.15232C15.4476 6.64611 16.4375 5.96577 17.204 5.49358L18.9657 4.50792C19.8788 4.06786 21.1043 3.49614 22.0387 3.10317L23.7086 2.49135C25.938 1.80683 26.0714 1.76589 27.5034 1.45566L29.0732 1.16079C30.9412 0.898112 31.4433 0.827447 33.6244 0.711914C32.5009 0.750904 31.5702 1.09202 31.0606 1.62527Z" fill="#008FFF"/>
<path d="M31.2728 1.433C27.7405 2.87289 23.7994 2.77283 20.3022 4.34491C17.2135 5.73333 14.2374 7.75069 11.4562 10.341C8.45338 13.1377 3.13454 19.3321 1.251 29.3947C-1.58658 44.5541 5.96181 59.9203 19.1995 65.9322C24.8824 68.513 29.6709 68.5661 31.7157 68.5887C32.2232 69.5939 33.7439 70.4508 35.5313 70.6452C34.0726 70.6961 32.6352 70.6417 31.225 70.4883C29.332 70.2418 27.6972 70.0289 25.0781 69.2771L23.5137 68.7847C21.6447 68.0996 21.3079 67.9762 19.587 67.1748L17.9602 66.3331C15.8989 65.122 15.8596 65.0988 14.8259 64.3719L13.1847 63.1378C12.443 62.5056 11.4608 61.6537 10.7507 60.9863L9.1974 59.3683C8.62783 58.6898 7.86207 57.7895 7.32267 57.0868L5.95848 55.1307C5.52887 54.4122 4.9403 53.4629 4.5404 52.7275L3.44163 50.4881C3.13578 49.7309 2.70572 48.7296 2.42972 47.9609L1.65214 45.4893C1.46535 44.6952 1.18948 43.6421 1.03319 42.8414L0.620566 40.182C0.53083 39.0508 0.406545 37.5418 0.375 36.4075L0.440246 33.638C0.520512 32.8232 0.597251 31.7333 0.707886 30.9221L1.16937 28.2726C1.36412 27.4974 1.59564 26.4561 1.81887 25.6885L2.64145 23.202C2.94338 22.4719 3.32048 21.4874 3.64899 20.769L4.79361 18.4884C5.19775 17.8092 5.71468 16.89 6.14383 16.2264L7.5636 14.1979C8.06936 13.5742 8.72631 12.7278 9.25578 12.124L10.888 10.398C11.5026 9.83238 12.3108 9.06486 12.9481 8.52488L14.7031 7.15232C15.4476 6.64611 16.4375 5.96577 17.204 5.49358L18.9657 4.50792C19.8788 4.06786 21.1043 3.49614 22.0387 3.10317L23.7086 2.49135C25.938 1.80683 26.0714 1.76589 27.5034 1.45566L29.0732 1.16079C30.9412 0.898112 31.4433 0.827447 33.6244 0.711914C32.6424 0.745941 31.8078 1.01084 31.2728 1.433Z" fill="#008AFF"/>
<path d="M31.6914 1.16562C28.2953 2.20777 24.6767 2.36798 21.372 3.77175C20.1723 4.2813 16.5214 5.83202 12.4999 9.31722C7.2157 13.8966 3.17588 20.5681 1.69322 27.1633C-2.38199 45.291 6.60825 59.262 17.3259 65.0664C23.6339 68.4826 29.3535 68.6578 31.7959 68.7326C32.3701 69.6747 33.8299 70.4602 35.5313 70.6452C34.0726 70.6961 32.6352 70.6417 31.225 70.4883C29.332 70.2418 27.6972 70.0289 25.0781 69.2771L23.5137 68.7847C21.6447 68.0996 21.3079 67.9762 19.587 67.1748L17.9602 66.3331C15.8989 65.122 15.8596 65.0988 14.8259 64.3719L13.1847 63.1378C12.443 62.5056 11.4608 61.6537 10.7507 60.9863L9.19739 59.3683C8.62783 58.6898 7.86207 57.7895 7.32267 57.0868L5.95848 55.1307C5.52887 54.4122 4.9403 53.4629 4.5404 52.7275L3.44163 50.4881C3.13578 49.7309 2.70572 48.7296 2.42972 47.9609L1.65214 45.4893C1.46535 44.6952 1.18948 43.6421 1.03319 42.8414L0.620566 40.182C0.53083 39.0508 0.406545 37.5418 0.375 36.4075L0.440244 33.638C0.52051 32.8232 0.597251 31.7333 0.707886 30.9221L1.16936 28.2726C1.36412 27.4974 1.59564 26.4561 1.81887 25.6885L2.64145 23.202C2.94338 22.4719 3.32048 21.4874 3.64899 20.769L4.79361 18.4884C5.19775 17.8092 5.71468 16.89 6.14383 16.2264L7.5636 14.1979C8.06936 13.5742 8.72631 12.7278 9.25578 12.124L10.888 10.398C11.5026 9.83238 12.3108 9.06486 12.9481 8.52488L14.7031 7.15232C15.4476 6.64611 16.4375 5.96577 17.204 5.49358L18.9657 4.50792C19.8788 4.06786 21.1043 3.49614 22.0387 3.10317L23.7086 2.49135C25.938 1.80683 26.0714 1.76589 27.5034 1.45566L29.0732 1.16079C30.9412 0.898112 31.4433 0.827447 33.6244 0.711914C32.87 0.738038 32.2027 0.900398 31.6914 1.16562Z" fill="#0085FF"/>
<path d="M32.7369 0.811123C-4.43926 5.9742 -7.43587 47.1865 13.7918 62.8999C21.3588 68.5013 29.061 68.8399 31.9604 68.9673C32.619 69.8025 33.974 70.4748 35.5313 70.6442C34.0726 70.6951 32.6352 70.6407 31.225 70.4873C29.332 70.2408 27.6972 70.0279 25.0781 69.2761L23.5137 68.7838C21.6447 68.0987 21.3079 67.9752 19.587 67.1738L17.9602 66.3321C15.8989 65.121 15.8596 65.0979 14.8259 64.3709L13.1847 63.1368C12.443 62.5046 11.4608 61.6528 10.7507 60.9853L9.19739 59.3673C8.62783 58.6888 7.86207 57.7886 7.32267 57.0858L5.95848 55.1297C5.52887 54.4113 4.9403 53.4619 4.5404 52.7265L3.44163 50.4872C3.13578 49.7299 2.70572 48.7286 2.42972 47.9599L1.65214 45.4884C1.46535 44.6943 1.18948 43.6411 1.03319 42.8404L0.620564 40.181C0.530828 39.0498 0.406545 37.5409 0.375 36.4065L0.440244 33.637C0.52051 32.8223 0.597249 31.7323 0.707884 30.9211L1.16936 28.2717C1.36412 27.4964 1.59564 26.4551 1.81887 25.6875L2.64145 23.201C2.94338 22.4709 3.32048 21.4864 3.64899 20.768L4.79361 18.4874C5.19775 17.8082 5.71468 16.8891 6.14383 16.2254L7.5636 14.1969C8.06936 13.5732 8.72631 12.7268 9.25578 12.1231L10.888 10.3971C11.5026 9.8314 12.3108 9.06388 12.9481 8.5239L14.7031 7.15135C15.4476 6.64513 16.4375 5.9648 17.204 5.49261L18.9657 4.50695C19.8788 4.06689 21.1043 3.49516 22.0387 3.10219L23.7086 2.49037C25.938 1.80586 26.0714 1.76491 27.5034 1.45469L29.0732 1.15981C30.9412 0.897135 31.4433 0.826471 33.6244 0.710938C33.3119 0.721648 33.0145 0.755936 32.7369 0.811123Z" fill="#0080FF"/>
</g>
<mask id="mask6_296_10" style="mask-type:luminance" maskUnits="userSpaceOnUse" x="31" y="67" width="6" height="4">
<path d="M34.1524 67.8027C33.5348 69.1057 34.8088 70.3556 36.9977 70.5937L35.5347 70.6447C33.3458 70.4066 31.5566 69.1747 31.5391 67.8939L34.1524 67.8027Z" fill="white"/>
</mask>
<g mask="url(#mask6_296_10)">
<path d="M31.5391 67.8939L34.1524 67.8027C34.1458 67.8165 34.1395 67.8304 34.1334 67.8441L31.5402 67.9346C31.5396 67.921 31.5393 67.9075 31.5391 67.8939Z" fill="#00C2FF"/>
<path d="M31.5391 67.9342L34.1323 67.8438C34.1225 67.8656 34.1134 67.8874 34.1048 67.9092L31.5434 67.9986C31.5414 67.9772 31.54 67.9557 31.5391 67.9342Z" fill="#00BDFF"/>
<path d="M31.5469 67.9986L34.1083 67.9092C34.0996 67.931 34.0915 67.9527 34.0839 67.9746L31.554 68.0628C31.5512 68.0414 31.5488 68.02 31.5469 67.9986Z" fill="#00B8FF"/>
<path d="M31.5469 68.0628L34.0768 67.9746C34.0701 67.9936 34.0639 68.0126 34.0581 68.0316L31.5556 68.1189C31.5524 68.1003 31.5494 68.0816 31.5469 68.0628Z" fill="#00B3FF"/>
<path d="M31.5625 68.1186L34.065 68.0312C34.0597 68.0488 34.0546 68.0663 34.0498 68.0838L31.5724 68.1702C31.5688 68.153 31.5655 68.1358 31.5625 68.1186Z" fill="#00AEFF"/>
<path d="M31.5703 68.1705L34.0477 68.084C34.043 68.1015 34.0386 68.119 34.0345 68.1364L31.5821 68.2219C31.5778 68.2049 31.574 68.1877 31.5703 68.1705Z" fill="#00A8FF"/>
<path d="M31.5859 68.2223L34.0384 68.1367C34.0343 68.1542 34.0306 68.1716 34.0272 68.189L31.5995 68.2737C31.5947 68.2565 31.5902 68.2394 31.5859 68.2223Z" fill="#00A3FF"/>
<path d="M31.5938 68.2742L34.0215 68.1895C34.0169 68.2126 34.013 68.2356 34.0096 68.2586L31.6146 68.3421C31.6071 68.3195 31.6002 68.2968 31.5938 68.2742Z" fill="#009EFF"/>
<path d="M31.6172 68.3413L34.0122 68.2578C34.0088 68.2811 34.006 68.3042 34.0038 68.3274L31.6415 68.4098C31.6328 68.387 31.6247 68.3642 31.6172 68.3413Z" fill="#0099FF"/>
<path d="M31.6406 68.4096L34.003 68.3271C34.0005 68.3533 33.9987 68.3793 33.9977 68.4053L31.6718 68.4864C31.6607 68.4609 31.6504 68.4352 31.6406 68.4096Z" fill="#0094FF"/>
<path d="M31.6719 68.4874L33.9978 68.4062C33.9963 68.4432 33.9963 68.48 33.9978 68.5166L31.7231 68.596C31.7047 68.5599 31.6876 68.5237 31.6719 68.4874Z" fill="#008FFF"/>
<path d="M31.7188 68.596L33.9934 68.5166C33.9955 68.5657 34.0001 68.6146 34.0073 68.6629L31.7997 68.7399C31.7704 68.6923 31.7434 68.6443 31.7188 68.596Z" fill="#008AFF"/>
<path d="M31.8047 68.7391L34.0123 68.6621C34.0243 68.7424 34.0434 68.8215 34.0693 68.8992L31.9687 68.9725C31.908 68.896 31.8533 68.8181 31.8047 68.7391Z" fill="#0085FF"/>
<path d="M31.9688 68.9728L34.0693 68.8994C34.3515 69.7454 35.4444 70.4243 36.9985 70.5934L35.5355 70.6444C33.9815 70.4754 32.6289 69.8055 31.9688 68.9728Z" fill="#0080FF"/>
</g>
<mask id="mask7_296_10" style="mask-type:luminance" maskUnits="userSpaceOnUse" x="33" y="67" width="10" height="16">
<path d="M42.4112 82.002C39.6855 77.752 36.9599 73.5019 34.2343 69.252C33.9544 68.8154 33.906 68.3131 34.1479 67.8027L41.6424 79.4888C41.6549 80.3959 41.9388 81.2655 42.4112 82.002Z" fill="white"/>
</mask>
<g mask="url(#mask7_296_10)">
<path d="M34.1558 67.8027L41.6502 79.4888C41.6503 79.4981 41.6505 79.5074 41.6507 79.5167L34.1484 67.8185C34.1509 67.8132 34.1533 67.808 34.1558 67.8027Z" fill="#00C2FF"/>
<path d="M34.1441 67.8184L41.6464 79.5166C41.6467 79.5313 41.647 79.5461 41.6475 79.5608L34.1328 67.8432C34.1365 67.8349 34.1403 67.8267 34.1441 67.8184Z" fill="#00BDFF"/>
<path d="M34.1358 67.8428L41.6505 79.5603C41.6509 79.575 41.6514 79.5897 41.652 79.6044L34.125 67.8676C34.1285 67.8593 34.1321 67.8511 34.1358 67.8428Z" fill="#00B8FF"/>
<path d="M34.1198 67.8682L41.6467 79.6049C41.6473 79.6196 41.648 79.6343 41.6487 79.649L34.1094 67.893C34.1127 67.8847 34.1162 67.8765 34.1198 67.8682Z" fill="#00B3FF"/>
<path d="M34.1116 67.8926L34.6342 68.7073L35.1465 69.5062L35.6476 70.2878L36.1369 71.0507L36.6134 71.7937L37.0764 72.5155L37.5248 73.2147L37.9579 73.8901L38.3747 74.5402L38.7746 75.1637L39.1567 75.7594L39.52 76.3259L39.8637 76.8619L40.187 77.3661L40.4891 77.8371L40.7691 78.2736L41.0261 78.6743L41.2592 79.038L41.4677 79.3632L41.6508 79.6485C41.6515 79.6632 41.6523 79.6778 41.6532 79.6925L41.4674 79.4029L41.2564 79.0739L41.021 78.7069L40.7621 78.3032L40.4805 77.8641L40.177 77.3909L39.8525 76.8848L39.5078 76.3473L39.1438 75.7797L38.7612 75.1831L38.3609 74.559L37.9437 73.9087L37.5107 73.2333L37.0625 72.5344L36.5999 71.8131L36.1238 71.0708L35.6351 70.3088L35.1346 69.5284L34.6232 68.7308L34.1016 67.9175C34.1049 67.9091 34.1082 67.9008 34.1116 67.8926Z" fill="#00AEFF"/>
<path d="M34.1032 67.918L41.6548 79.6931C41.6557 79.7078 41.6566 79.7224 41.6576 79.737L34.0938 67.9428C34.0969 67.9345 34.1 67.9263 34.1032 67.918Z" fill="#00A8FF"/>
<path d="M34.0871 67.9424L41.6509 79.7366C41.6519 79.7511 41.653 79.7658 41.6541 79.7803L41.463 79.4823L41.2472 79.1457L41.0075 78.772L40.7448 78.3623L40.4599 77.918L40.1536 77.4403L39.8266 76.9306L39.48 76.39L39.1144 75.82L38.7307 75.2217L38.3297 74.5964L37.9122 73.9455L37.4791 73.2702L37.0312 72.5717L36.5692 71.8514L36.0941 71.1105L35.6066 70.3504L35.1076 69.5723L34.5978 68.7774L34.0781 67.9671C34.081 67.959 34.084 67.9507 34.0871 67.9424Z" fill="#00A3FF"/>
<path d="M34.0866 67.9668L41.6626 79.78C41.6638 79.7946 41.665 79.8092 41.6663 79.8237L34.0781 67.9916C34.0809 67.9833 34.0837 67.9751 34.0866 67.9668Z" fill="#009EFF"/>
<path d="M34.0752 67.9922L41.6635 79.8244C41.6655 79.8476 41.6677 79.8709 41.6701 79.8941L34.0625 68.0316C34.0665 68.0185 34.0708 68.0054 34.0752 67.9922Z" fill="#0099FF"/>
<path d="M34.0596 68.0312L41.6672 79.8937C41.6699 79.9194 41.6727 79.945 41.6758 79.9706L34.0469 68.0749C34.0509 68.0603 34.0552 68.0458 34.0596 68.0312Z" fill="#0094FF"/>
<path d="M34.0505 68.0752L41.6794 79.9709C41.6824 79.9964 41.6857 80.0219 41.6892 80.0474L34.0391 68.1187C34.0427 68.1042 34.0464 68.0897 34.0505 68.0752Z" fill="#008FFF"/>
<path d="M34.0412 68.1182L41.6913 80.0469C41.6948 80.0724 41.6985 80.0978 41.7024 80.1232L34.0312 68.1616C34.0343 68.1471 34.0376 68.1326 34.0412 68.1182Z" fill="#008AFF"/>
<path d="M34.0303 68.1621L41.7015 80.1237C41.7085 80.1696 41.7163 80.2153 41.7247 80.2607L34.0156 68.2402C34.0199 68.2142 34.0247 68.1882 34.0303 68.1621Z" fill="#0085FF"/>
<path d="M34.0097 68.2402L41.7188 80.2607C41.8341 80.8856 42.0749 81.4775 42.4112 82.002L42.087 81.4964L41.7516 80.9735L41.4056 80.4338L41.049 79.8779L40.6825 79.3065L40.3064 78.7199L39.9209 78.1189L39.5266 77.504L39.1237 76.8758L38.7126 76.2348L38.2938 75.5817L37.8675 74.9171L37.4341 74.2414L36.9941 73.5552L36.5478 72.8592L36.0955 72.1539L35.6376 71.44L35.1745 70.718L34.7067 69.9883L34.2343 69.2518C34.035 68.9411 33.9531 68.597 34.0097 68.2402Z" fill="#0080FF"/>
</g>
<mask id="mask8_296_10" style="mask-type:luminance" maskUnits="userSpaceOnUse" x="30" y="0" width="24" height="3">
<path d="M33.6259 0.7112L35.6416 0.640861L37.6574 0.570523L39.6732 0.500184L41.689 0.429846L43.7048 0.359507L45.7205 0.289167L47.7363 0.218828L49.7521 0.14849L51.7679 0.078151L53.7837 0.0078125C52.0557 0.0680936 50.7836 0.8428 50.7985 1.9325L30.6408 2.63582C30.6258 1.54619 31.898 0.771481 33.6259 0.7112Z" fill="white"/>
</mask>
<g mask="url(#mask8_296_10)">
<path d="M50.7984 1.932L30.6408 2.63519C30.6397 2.56132 30.6447 2.48896 30.6552 2.41817L50.8128 1.71484C50.8023 1.78571 50.7974 1.85807 50.7984 1.932Z" fill="#00C2FF"/>
<path d="M50.8139 1.71469L30.6562 2.41801C30.66 2.39248 30.6646 2.36714 30.6698 2.34199L50.8275 1.63867C50.8223 1.66382 50.8177 1.68916 50.8139 1.71469Z" fill="#00BDFF"/>
<path d="M50.8295 1.63923L30.6719 2.34256C30.6772 2.31748 30.6831 2.29246 30.6899 2.26778L50.8475 1.56445C50.8408 1.58921 50.8348 1.61409 50.8295 1.63923Z" fill="#00B8FF"/>
<path d="M50.8451 1.56441L30.6875 2.26773C30.6938 2.24442 30.7007 2.22136 30.7083 2.19844L50.8659 1.49512C50.8584 1.51804 50.8514 1.54116 50.8451 1.56441Z" fill="#00B3FF"/>
<path d="M50.8686 1.49468L30.7109 2.198C30.7185 2.17514 30.7267 2.15255 30.7354 2.13008L50.8931 1.42676C50.8843 1.44916 50.8762 1.47182 50.8686 1.49468Z" fill="#00AEFF"/>
<path d="M50.892 1.42784L30.7344 2.13109C30.7442 2.10608 30.7548 2.08133 30.766 2.05684L50.9236 1.35352C50.9123 1.37801 50.9018 1.40276 50.892 1.42784Z" fill="#00A8FF"/>
<path d="M50.9232 1.35274L30.7656 2.05606C30.7786 2.02785 30.7925 2.00002 30.8075 1.97253L31.8154 1.93739L32.8233 1.90226L33.8311 1.86705L34.8391 1.83192L35.847 1.79678L36.8549 1.76158L37.8628 1.72644L38.8707 1.6913L39.8786 1.6561L40.8865 1.62096L41.8944 1.58583L42.9023 1.55063L43.9102 1.51549L44.918 1.48035L45.9259 1.44522L46.9338 1.41008L47.9417 1.37494L48.9495 1.33981L49.9575 1.30467L50.9653 1.26953C50.9502 1.2967 50.9362 1.32459 50.9232 1.35274Z" fill="#00A3FF"/>
<path d="M50.9625 1.26981L49.9547 1.30495L48.9467 1.34009L47.9389 1.37522L46.931 1.41036L45.9231 1.4455L44.9152 1.48064L43.9074 1.51577L42.8995 1.55091L41.8916 1.58611L40.8837 1.62125L39.8758 1.65638L38.8679 1.69159L37.86 1.72672L36.8521 1.76186L35.8442 1.79706L34.8363 1.8322L33.8283 1.86733L32.8205 1.90254L31.8126 1.93767L30.8047 1.97281C30.822 1.94087 30.8406 1.90939 30.8605 1.87837L51.0181 1.17505C50.9985 1.20633 50.9798 1.23788 50.9625 1.26981Z" fill="#009EFF"/>
<path d="M51.017 1.17476L30.8594 1.87808C30.8832 1.84092 30.9089 1.80448 30.9362 1.76875L51.0939 1.06543C51.0665 1.10115 51.0409 1.1376 51.017 1.17476Z" fill="#0099FF"/>
<path d="M51.103 1.06563L30.9453 1.76888C30.9834 1.71925 31.0249 1.67098 31.0696 1.62422L51.2273 0.920898C51.1825 0.967726 51.141 1.01599 51.103 1.06563Z" fill="#0094FF"/>
<path d="M51.2202 0.920924L31.0625 1.62425C31.1275 1.55619 31.1994 1.49141 31.2777 1.42988L51.4354 0.726562C51.357 0.788084 51.2852 0.852936 51.2202 0.920924Z" fill="#008FFF"/>
<path d="M51.4389 0.726949L31.2812 1.43027C31.4055 1.3325 31.546 1.24316 31.7005 1.16328L51.8582 0.459961C51.7036 0.5399 51.5632 0.629245 51.4389 0.726949Z" fill="#008AFF"/>
<path d="M51.853 0.458985L31.6953 1.16231C31.994 1.00792 32.3457 0.888528 32.7366 0.810744L52.8942 0.107422C52.5033 0.185206 52.1516 0.304592 51.853 0.458985Z" fill="#0085FF"/>
<path d="M52.8998 0.108259L32.7422 0.81158C33.0199 0.756328 33.3174 0.722107 33.6298 0.7112L35.6455 0.640861L37.6613 0.570523L39.6771 0.500184L41.6929 0.429844L43.7087 0.359505L45.7244 0.289167L47.7402 0.218828L49.756 0.14849L51.7718 0.078151L53.7876 0.0078125C53.475 0.0187846 53.1775 0.0530066 52.8998 0.108259Z" fill="#0080FF"/>
</g>
<mask id="mask9_296_10" style="mask-type:luminance" maskUnits="userSpaceOnUse" x="41" y="67" width="13" height="18">
<path d="M48.807 67.291C49.4597 68.5497 51.7641 69.7635 53.9529 70.0017L45.662 84.1134C43.4732 83.8752 41.6724 81.8041 41.6406 79.4886L48.807 67.291Z" fill="white"/>
</mask>
<g mask="url(#mask9_296_10)">
<path d="M41.6406 79.4886L48.807 67.291C48.8085 67.2938 48.8099 67.2966 48.8114 67.2995L41.6408 79.5042C41.6408 79.499 41.6407 79.4938 41.6406 79.4886Z" fill="#00C2FF"/>
<path d="M41.6406 79.5045L48.8111 67.2998C48.8152 67.3075 48.8193 67.3152 48.8234 67.3229L41.6415 79.547C41.6412 79.5329 41.6409 79.5188 41.6406 79.5045Z" fill="#00C7FF"/>
<path d="M41.6484 79.5463L48.8304 67.3223C48.8346 67.33 48.8387 67.3377 48.843 67.3454L41.6498 79.5888C41.6493 79.5745 41.6488 79.5604 41.6484 79.5463Z" fill="#00CCFF"/>
<path d="M41.6484 79.5891L48.8417 67.3457C48.846 67.3534 48.8503 67.361 48.8547 67.3688L41.6501 79.6313C41.6495 79.6172 41.6489 79.6032 41.6484 79.5891Z" fill="#00D1FF"/>
<path d="M41.6484 79.6308L48.853 67.3682C48.8575 67.3759 48.8619 67.3836 48.8665 67.3912L41.6506 79.6731C41.6497 79.659 41.6491 79.6449 41.6484 79.6308Z" fill="#00D6FF"/>
<path d="M41.6562 79.6735L48.8721 67.3916C48.8767 67.3993 48.8812 67.407 48.8859 67.4147L41.6587 79.7157C41.6579 79.7016 41.657 79.6875 41.6562 79.6735Z" fill="#00DBFF"/>
<path d="M41.6562 79.716L48.8834 67.415C48.888 67.4227 48.8928 67.4304 48.8976 67.438L41.6592 79.7582C41.6581 79.7441 41.6572 79.7301 41.6562 79.716Z" fill="#00DEFF"/>
<path d="M41.6641 79.7576L48.9024 67.4375C48.9072 67.4452 48.912 67.4529 48.9169 67.4605L41.6673 79.7998C41.6662 79.7857 41.665 79.7717 41.6641 79.7576Z" fill="#00DEFF"/>
<path d="M41.6641 79.8001L48.9136 67.4609C48.925 67.4789 48.9367 67.4967 48.9488 67.5146L41.6731 79.8981C41.6697 79.8655 41.6667 79.8328 41.6641 79.8001Z" fill="#00DEFF"/>
<path d="M41.6719 79.8981L48.9475 67.5146C48.9916 67.58 49.0398 67.6449 49.092 67.7096L41.7226 80.2526C41.7013 80.1355 41.6843 80.0173 41.6719 79.8981Z" fill="#00DEFF"/>
<path d="M41.7188 80.2523L49.0881 67.7092C49.102 67.7263 49.1161 67.7435 49.1304 67.7605L41.7367 80.3451C41.7304 80.3142 41.7244 80.2833 41.7188 80.2523Z" fill="#00DEFF"/>
<path d="M41.7422 80.3453L49.1359 67.7607C49.1503 67.7778 49.165 67.7948 49.1799 67.8118L41.762 80.4376C41.7551 80.407 41.7485 80.3761 41.7422 80.3453Z" fill="#00DEFF"/>
<path d="M41.7578 80.4373L49.1757 67.8115C49.1926 67.8307 49.2098 67.8499 49.2274 67.8691L41.7823 80.541C41.7737 80.5065 41.7656 80.472 41.7578 80.4373Z" fill="#00DEFF"/>
<path d="M41.7812 80.5411L49.2263 67.8691C49.2508 67.8958 49.2759 67.9224 49.3017 67.9488L41.8192 80.6845C41.8059 80.637 41.7932 80.5892 41.7812 80.5411Z" fill="#00DBFF"/>
<path d="M41.8203 80.6848L49.3028 67.9492C49.3286 67.9757 49.355 68.0021 49.382 68.0284L41.8627 80.8268C41.8479 80.7797 41.8338 80.7324 41.8203 80.6848Z" fill="#00D6FF"/>
<path d="M41.8594 80.8267L49.3787 68.0283C49.415 68.0636 49.4524 68.0986 49.4908 68.1334L41.9229 81.0145C41.9005 80.9524 41.8793 80.8898 41.8594 80.8267Z" fill="#00D1FF"/>
<path d="M41.9297 81.0139L49.4976 68.1328C49.5389 68.1703 49.5816 68.2075 49.6254 68.2445L42.0064 81.2126C41.9794 81.147 41.9538 81.0807 41.9297 81.0139Z" fill="#00CCFF"/>
<path d="M42.0078 81.2132L49.6269 68.2451C49.6776 68.288 49.7299 68.3303 49.7837 68.3723L42.1072 81.4383C42.0721 81.3642 42.039 81.2891 42.0078 81.2132Z" fill="#00C7FF"/>
<path d="M42.1016 81.4381L49.7781 68.3721C49.8421 68.422 49.9082 68.4713 49.9763 68.5199L42.2337 81.6983C42.1871 81.613 42.1431 81.5262 42.1016 81.4381Z" fill="#00C2FF"/>
<path d="M42.2344 81.6979L49.977 68.5195C50.0569 68.5766 50.1394 68.6326 50.2245 68.6876L42.408 81.9917C42.3468 81.896 42.289 81.798 42.2344 81.6979Z" fill="#00BDFF"/>
<path d="M42.4141 81.9926L50.2306 68.6885C50.3325 68.7545 50.438 68.819 50.5467 68.8817L42.6473 82.327C42.5651 82.219 42.4873 82.1074 42.4141 81.9926Z" fill="#00B8FF"/>
<path d="M42.6406 82.3272L50.5401 68.8818C50.6762 68.9603 50.8172 69.0362 50.9625 69.1089L42.9683 82.7155C42.8528 82.5921 42.7434 82.4625 42.6406 82.3272Z" fill="#00B3FF"/>
<path d="M42.9688 82.7149L50.9629 69.1084C51.1398 69.1969 51.3229 69.2809 51.5109 69.3594L43.4166 83.1362C43.2591 83.006 43.1095 82.8652 42.9688 82.7149Z" fill="#00AEFF"/>
<path d="M43.4219 83.1362L51.5161 69.3594C51.7448 69.4549 51.9806 69.5426 52.2209 69.6208L44.0301 83.5621C43.817 83.4375 43.6136 83.2947 43.4219 83.1362Z" fill="#00A8FF"/>
<path d="M44.0312 83.5614L52.2221 69.6201C52.5042 69.712 52.7924 69.7911 53.0829 69.8552L44.8181 83.9223C44.5446 83.8293 44.2813 83.7077 44.0312 83.5614Z" fill="#00A3FF"/>
<path d="M44.8125 83.9226L53.0773 69.8555C53.3702 69.9201 53.6653 69.9695 53.9583 70.0014L45.6674 84.113C45.3744 84.0812 45.0883 84.0164 44.8125 83.9226Z" fill="#009EFF"/>
</g>
<mask id="mask10_296_10" style="mask-type:luminance" maskUnits="userSpaceOnUse" x="48" y="67" width="8" height="4">
<path d="M51.6961 67.1904C51.7136 68.4712 53.5028 69.7031 55.6917 69.9413L53.9585 70.0018C51.7696 69.7636 49.4653 68.5497 48.8125 67.2911C48.8125 67.2911 51.696 67.1904 51.6961 67.1904Z" fill="white"/>
</mask>
<g mask="url(#mask10_296_10)">
<path d="M48.8125 67.2911L51.696 67.1904C51.6961 67.204 51.6965 67.2176 51.6972 67.2311L48.8338 67.331C48.8265 67.3177 48.8194 67.3044 48.8125 67.2911Z" fill="#00C2FF"/>
<path d="M48.8359 67.3304L51.6993 67.2305C51.7002 67.252 51.7016 67.2734 51.7036 67.2949L48.8719 67.3937C48.8595 67.3726 48.8475 67.3515 48.8359 67.3304Z" fill="#00BDFF"/>
<path d="M48.8672 67.3937L51.6988 67.2949C51.7007 67.3163 51.7031 67.3378 51.706 67.3592L48.9059 67.4568C48.8925 67.4358 48.8797 67.4148 48.8672 67.3937Z" fill="#00B8FF"/>
<path d="M48.9062 67.457L51.7064 67.3594C51.7088 67.3781 51.7118 67.3967 51.715 67.4154L48.9423 67.5121C48.93 67.4938 48.9179 67.4754 48.9062 67.457Z" fill="#00B3FF"/>
<path d="M48.9453 67.5127L51.718 67.416C51.721 67.4333 51.7243 67.4504 51.728 67.4676L48.9803 67.5635C48.9684 67.5466 48.9567 67.5297 48.9453 67.5127Z" fill="#00AEFF"/>
<path d="M48.9766 67.5627L51.7242 67.4668C51.7278 67.484 51.7318 67.5012 51.736 67.5183L49.0134 67.6134C49.0008 67.5965 48.9886 67.5796 48.9766 67.5627Z" fill="#00A8FF"/>
<path d="M49.0156 67.6136L51.7383 67.5186C51.7424 67.5357 51.747 67.5528 51.7519 67.57L49.054 67.6641C49.041 67.6473 49.0282 67.6304 49.0156 67.6136Z" fill="#00A3FF"/>
<path d="M49.0547 67.6644L51.7526 67.5703C51.759 67.593 51.766 67.6157 51.7734 67.6384L49.1082 67.7314C49.0899 67.7091 49.0721 67.6868 49.0547 67.6644Z" fill="#009EFF"/>
<path d="M49.1094 67.7317L51.7745 67.6387C51.7821 67.6616 51.7901 67.6844 51.7988 67.7071L49.1663 67.7989C49.1469 67.7766 49.1279 67.7542 49.1094 67.7317Z" fill="#0099FF"/>
<path d="M49.1641 67.7979L51.7966 67.7061C51.8063 67.7318 51.8168 67.7574 51.8277 67.7829L49.2317 67.8735C49.2086 67.8484 49.186 67.8232 49.1641 67.7979Z" fill="#0094FF"/>
<path d="M49.2344 67.8738L51.8304 67.7832C51.8463 67.8196 51.8632 67.8558 51.8817 67.8918L49.3367 67.9806C49.3014 67.9451 49.2674 67.9095 49.2344 67.8738Z" fill="#008FFF"/>
<path d="M49.3359 67.9804L51.8809 67.8916C51.9056 67.9399 51.9326 67.9879 51.9619 68.0355L49.4841 68.122C49.4327 68.0752 49.3833 68.028 49.3359 67.9804Z" fill="#008AFF"/>
<path d="M49.4844 68.1226L51.9622 68.0361C52.0108 68.1151 52.0656 68.193 52.1262 68.2695L49.7555 68.3522C49.6601 68.2769 49.5696 68.2003 49.4844 68.1226Z" fill="#0085FF"/>
<path d="M49.7578 68.3522L52.1286 68.2695C52.7887 69.1022 54.1413 69.7722 55.6953 69.9413L53.9621 70.0018C52.4081 69.8327 50.7959 69.1718 49.7578 68.3522Z" fill="#0080FF"/>
</g>
<mask id="mask11_296_10" style="mask-type:luminance" maskUnits="userSpaceOnUse" x="56" y="0" width="35" height="71">
<path d="M60.0253 0.30957C75.868 2.03323 88.2653 16.2516 88.5089 33.976C88.774 53.2738 74.525 69.4272 56.6797 70.0497C57.0063 70.0852 57.3235 70.0966 57.6266 70.0861C58.5124 70.0392 59.6922 69.9497 60.575 69.8626C61.0582 69.815 61.6997 69.723 62.1776 69.6373C62.7428 69.5358 63.4999 69.4135 64.0572 69.2752C65.1104 69.014 66.5148 68.6563 67.542 68.3067C68.7557 67.8935 72.4492 66.6363 76.5466 63.6459C78.4099 62.2859 81.1608 59.9598 83.685 56.6008C85.7534 53.8483 87.4091 50.8192 88.6061 47.5978C88.8363 46.9781 89.5369 45.0925 90.0778 42.5279C90.4751 40.6441 90.6134 39.5646 90.8068 37.1636C90.8986 36.0224 90.918 34.4899 90.8429 33.3475C90.7331 31.6785 90.6087 29.7869 90.1953 27.8641C89.8763 26.381 89.5466 24.8474 88.7474 22.6434C87.8749 20.2374 86.898 18.4017 86.5184 17.7241C86.1672 17.0972 85.6858 16.2676 85.2895 15.6683C84.7776 14.8939 84.0687 13.8773 83.4935 13.1488C81.9487 11.1922 80.5349 9.80583 79.6209 8.98743C79.1637 8.57814 78.554 8.03051 78.0645 7.66047C77.5731 7.28898 76.926 6.78257 76.4235 6.4263C75.9631 6.09988 75.329 5.69418 74.8564 5.38579C73.9904 4.82072 72.2156 3.84702 70.7447 3.19562C68.3592 2.1391 66.5267 1.61361 66.022 1.4777C65.1444 1.24148 63.9681 0.946146 63.0761 0.772357C62.1674 0.595367 60.9432 0.429153 60.0253 0.30957Z" fill="white"/>
</mask>
<g mask="url(#mask11_296_10)">
<path d="M60.0255 0.30957C61.7826 0.538416 65.4391 1.01453 69.2615 2.57223C73.9391 4.47837 76.7847 6.57835 78.0645 7.66047C79.9441 9.24972 82.5183 11.4262 85.2895 15.6683C87.1556 18.5247 88.7651 22.1295 89.595 25.3109C93.4302 40.0142 88.3085 55.0615 76.5466 63.6459C68.5128 69.5093 60.604 69.9284 57.6266 70.0862C57.3235 70.0967 57.0063 70.0854 56.6797 70.0498C74.525 69.4272 88.774 53.2738 88.5089 33.9761C88.2655 16.2516 75.8681 2.03323 60.0255 0.30957Z" fill="#00B3FF"/>
<path d="M56.6797 70.0496C74.1201 69.4411 88.1255 53.9989 88.5047 35.2847C88.54 34.8959 88.5871 34.3773 88.6225 33.9885C88.6865 31.3926 88.7938 27.0479 86.0778 21.2019C81.6911 9.78977 71.8117 1.59193 60.0254 0.30957C60.4865 0.36959 61.1013 0.449726 61.5625 0.509745C62.9139 0.744208 64.3114 0.986638 66.1722 1.52081L67.7364 2.01311C69.6051 2.69808 69.9419 2.82152 71.663 3.62327L73.2895 4.46498C75.3507 5.67622 75.3901 5.69934 76.4235 6.4263L78.0645 7.66047C78.8061 8.29273 79.7881 9.14463 80.4982 9.8121L82.0512 11.4303C82.6207 12.1088 83.3863 13.0091 83.9255 13.7118L85.2895 15.6682C85.719 16.3868 86.3074 17.3362 86.7072 18.0717L87.8059 20.3114C88.1117 21.0687 88.5416 22.0702 88.8175 22.8389L89.5949 25.3109C89.7816 26.1051 90.0575 27.1584 90.2137 27.9593L90.6264 30.6193C90.7161 31.7507 90.8403 33.2601 90.8719 34.3946L90.8067 37.1637C90.7264 37.9783 90.6497 39.068 90.5391 39.879L90.0778 42.5279C89.883 43.303 89.6516 44.3442 89.4284 45.1116L88.606 47.5978C88.3042 48.3277 87.9271 49.312 87.5987 50.0304L86.4544 52.3108C86.0503 52.9898 85.5335 53.9089 85.1043 54.5725L83.6848 56.6009C83.1791 57.2245 82.5223 58.0709 81.993 58.6745L80.3611 60.4005C79.7465 60.9661 78.9384 61.7334 78.3012 62.2734L76.5465 63.646C75.8021 64.1521 74.8124 64.8325 74.0459 65.3047L72.2845 66.2903C71.3714 66.7303 70.1459 67.302 69.2117 67.6951L67.542 68.3069C65.3126 68.9914 65.1791 69.0324 63.7474 69.3426L62.1776 69.6375C60.3096 69.9001 59.8075 69.9708 57.6266 70.0863C57.3235 70.0966 57.0063 70.0852 56.6797 70.0496Z" fill="#00B3FF"/>
<path d="M56.6797 70.0497C72.3307 69.5036 85.2154 57.0115 87.9686 40.9293C90.6522 32.2493 89.2213 23.9443 83.7159 16.2451C78.6511 7.46264 70.0245 1.3975 60.0254 0.30957C60.4865 0.36959 61.1013 0.449726 61.5625 0.509745C62.9139 0.744208 64.3114 0.986638 66.1722 1.52081L67.7364 2.01311C69.6051 2.69808 69.9419 2.82152 71.663 3.62327L73.2895 4.46498C75.3507 5.67622 75.3901 5.69934 76.4235 6.4263L78.0645 7.66047C78.8061 8.29273 79.7881 9.14464 80.4982 9.8121L82.0512 11.4303C82.6207 12.1088 83.3863 13.0091 83.9255 13.7118L85.2895 15.6683C85.719 16.3868 86.3074 17.3362 86.7072 18.0717L87.8059 20.3114C88.1117 21.0687 88.5416 22.0702 88.8175 22.8389L89.5949 25.3109C89.7816 26.1051 90.0575 27.1584 90.2137 27.9593L90.6264 30.6193C90.7161 31.7507 90.8403 33.2601 90.8719 34.3946L90.8067 37.1636C90.7264 37.9783 90.6497 39.068 90.5391 39.879L90.0778 42.5279C89.883 43.303 89.6516 44.3442 89.4284 45.1116L88.606 47.5978C88.3042 48.3277 87.9271 49.312 87.5987 50.0304L86.4544 52.3108C86.0503 52.9898 85.5335 53.9089 85.1043 54.5725L83.6848 56.6009C83.1791 57.2245 82.5223 58.0709 81.993 58.6745L80.3611 60.4005C79.7465 60.9661 78.9384 61.7334 78.3012 62.2734L76.5465 63.646C75.8021 64.1521 74.8124 64.8325 74.0459 65.3047L72.2845 66.2903C71.3714 66.7303 70.1459 67.302 69.2117 67.6951L67.542 68.3069C65.3126 68.9914 65.1791 69.0324 63.7474 69.3426L62.1776 69.6375C60.3096 69.9001 59.8075 69.9708 57.6266 70.0863C57.3235 70.0966 57.0063 70.0853 56.6797 70.0497Z" fill="#00AEFF"/>
<path d="M56.6797 70.0496C71.0363 69.5488 83.0652 58.9962 87.0818 44.8412C87.2107 44.581 87.3826 44.234 87.5116 43.9738C92.0521 33.7676 89.719 21.5966 81.5678 12.9666C76.3879 5.97155 68.7263 1.25624 60.0255 0.30957C60.4866 0.36959 61.1014 0.449726 61.5625 0.509745C62.914 0.744208 64.3114 0.986638 66.1723 1.52081L67.7365 2.01311C69.6052 2.69808 69.9419 2.82152 71.6631 3.62327L73.2896 4.46498C75.3508 5.67622 75.3902 5.69934 76.4235 6.4263L78.0646 7.66047C78.8062 8.29273 79.7882 9.14463 80.4982 9.8121L82.0513 11.4303C82.6207 12.1088 83.3864 13.0091 83.9256 13.7118L85.2896 15.6682C85.719 16.3868 86.3075 17.3362 86.7073 18.0717L87.806 20.3114C88.1117 21.0687 88.5417 22.0702 88.8175 22.8389L89.595 25.3109C89.7817 26.1051 90.0576 27.1584 90.2138 27.9593L90.6264 30.6193C90.7162 31.7507 90.8404 33.2601 90.872 34.3946L90.8067 37.1637C90.7265 37.9783 90.6497 39.068 90.5392 39.879L90.0778 42.5279C89.8831 43.303 89.6516 44.3442 89.4284 45.1116L88.6061 47.5978C88.3043 48.3277 87.9272 49.312 87.5988 50.0304L86.4544 52.3108C86.0504 52.9898 85.5336 53.9089 85.1044 54.5725L83.6849 56.6009C83.1792 57.2245 82.5224 58.0709 81.993 58.6745L80.3611 60.4005C79.7466 60.9661 78.9385 61.7334 78.3013 62.2734L76.5466 63.646C75.8022 64.1521 74.8125 64.8325 74.046 65.3047L72.2845 66.2903C71.3714 66.7303 70.146 67.302 69.2118 67.6951L67.542 68.3069C65.3127 68.9914 65.1792 69.0324 63.7475 69.3426L62.1777 69.6375C60.3097 69.9001 59.8076 69.9708 57.6266 70.0863C57.3235 70.0966 57.0063 70.0852 56.6797 70.0496Z" fill="#00A8FF"/>
<path d="M56.6797 70.0496C69.9026 69.5883 81.151 60.6 85.9832 48.1237C86.1227 47.9096 86.3087 47.624 86.4482 47.4099C93.5052 35.9093 90.3558 19.2892 79.428 10.3608C74.381 4.8108 67.5966 1.13332 60.0253 0.30957C60.4865 0.36959 61.1012 0.449726 61.5624 0.509745C62.9138 0.744208 64.3113 0.986638 66.1722 1.52081L67.7363 2.01311C69.6051 2.69808 69.9418 2.82152 71.663 3.62327L73.2894 4.46498C75.3506 5.67622 75.3901 5.69934 76.4234 6.4263L78.0645 7.66047C78.806 8.29273 79.788 9.14463 80.4981 9.8121L82.0512 11.4303C82.6206 12.1088 83.3862 13.0091 83.9254 13.7118L85.2894 15.6682C85.7189 16.3868 86.3074 17.3362 86.7072 18.0717L87.8058 20.3114C88.1116 21.0687 88.5415 22.0702 88.8174 22.8389L89.5949 25.3109C89.7816 26.1051 90.0574 27.1584 90.2137 27.9593L90.6263 30.6193C90.716 31.7507 90.8403 33.2601 90.8719 34.3946L90.8066 37.1637C90.7263 37.9783 90.6496 39.068 90.539 39.879L90.0777 42.5279C89.8829 43.303 89.6515 44.3442 89.4283 45.1116L88.6059 47.5978C88.3041 48.3277 87.927 49.312 87.5987 50.0304L86.4543 52.3108C86.0502 52.9898 85.5334 53.9089 85.1043 54.5725L83.6848 56.6009C83.1791 57.2245 82.5223 58.0709 81.9929 58.6745L80.361 60.4005C79.7464 60.9661 78.9384 61.7334 78.3011 62.2734L76.5465 63.646C75.802 64.1521 74.8123 64.8325 74.0459 65.3047L72.2844 66.2903C71.3713 66.7303 70.1459 67.302 69.2116 67.6951L67.5419 68.3069C65.3126 68.9914 65.1791 69.0324 63.7473 69.3426L62.1775 69.6375C60.3096 69.9001 59.8075 69.9708 57.6265 70.0863C57.3235 70.0966 57.0063 70.0852 56.6797 70.0496Z" fill="#00A3FF"/>
<path d="M56.6797 70.0497C68.8554 69.6249 79.3568 61.9703 84.7165 51.0201H84.7165C93.783 40.0176 92.5052 18.9155 77.27 8.19836C72.5171 3.86139 66.5647 1.02106 60.0254 0.30957C61.9183 0.556115 63.553 0.76896 66.1722 1.52081L67.7363 2.01311C69.6051 2.69808 69.9418 2.82152 71.663 3.62327L73.2894 4.46498C75.3506 5.67622 75.3901 5.69934 76.4234 6.4263L78.0645 7.66047C78.806 8.29273 79.788 9.14464 80.4981 9.8121L82.0512 11.4303C82.6206 12.1088 83.3862 13.0091 83.9254 13.7118L85.2894 15.6683C85.7189 16.3868 86.3074 17.3362 86.7072 18.0717L87.8058 20.3114C88.1116 21.0687 88.5415 22.0702 88.8174 22.8389L89.5949 25.3109C89.7816 26.1051 90.0574 27.1584 90.2137 27.9593L90.6263 30.6193C90.716 31.7507 90.8403 33.2601 90.8719 34.3946L90.8066 37.1636C90.7263 37.9783 90.6496 39.068 90.539 39.879L90.0777 42.5279C89.8829 43.303 89.6515 44.3442 89.4283 45.1116L88.6059 47.5978C88.3041 48.3277 87.927 49.312 87.5987 50.0304L86.4543 52.3108C86.0502 52.9898 85.5334 53.9089 85.1043 54.5725L83.6848 56.6009C83.1791 57.2245 82.5223 58.0709 81.9929 58.6745L80.361 60.4005C79.7464 60.9661 78.9384 61.7334 78.3011 62.2734L76.5465 63.646C75.802 64.1521 74.8123 64.8325 74.0459 65.3047L72.2844 66.2903C71.3713 66.7303 70.1459 67.302 69.2116 67.6951L67.5419 68.3069C65.3126 68.9914 65.1791 69.0324 63.7473 69.3426L62.1775 69.6375C60.3096 69.9001 59.8075 69.9708 57.6265 70.0863C57.3235 70.0966 57.0063 70.0853 56.6797 70.0497Z" fill="#009EFF"/>
<path d="M56.6797 70.0497C67.8382 69.6604 77.5904 63.1989 83.2676 53.6933C83.4141 53.5465 83.6095 53.3506 83.756 53.2038C94.8773 41.3785 92.641 16.5235 75.0251 6.32912C70.6967 3.04815 65.5722 0.913034 60.0255 0.30957C60.4866 0.36959 61.1014 0.449726 61.5625 0.509745C62.914 0.744208 64.3114 0.986638 66.1723 1.52081L67.7365 2.01311C69.6052 2.69808 69.9419 2.82152 71.6631 3.62327L73.2896 4.46498C75.3508 5.67622 75.3902 5.69934 76.4235 6.4263L78.0646 7.66047C78.8062 8.29273 79.7882 9.14464 80.4982 9.8121L82.0513 11.4303C82.6207 12.1088 83.3864 13.0091 83.9256 13.7118L85.2896 15.6683C85.719 16.3868 86.3075 17.3362 86.7073 18.0717L87.806 20.3114C88.1117 21.0687 88.5417 22.0702 88.8175 22.8389L89.595 25.3109C89.7817 26.1051 90.0576 27.1584 90.2138 27.9593L90.6264 30.6193C90.7162 31.7507 90.8404 33.2601 90.872 34.3946L90.8067 37.1636C90.7265 37.9783 90.6497 39.068 90.5392 39.879L90.0778 42.5279C89.8831 43.303 89.6516 44.3442 89.4284 45.1116L88.6061 47.5978C88.3043 48.3277 87.9272 49.312 87.5988 50.0304L86.4544 52.3108C86.0504 52.9898 85.5336 53.9089 85.1044 54.5725L83.6849 56.6009C83.1792 57.2245 82.5224 58.0709 81.993 58.6745L80.3611 60.4005C79.7466 60.9661 78.9385 61.7334 78.3013 62.2734L76.5466 63.646C75.8022 64.1521 74.8125 64.8325 74.046 65.3047L72.2845 66.2903C71.3714 66.7303 70.146 67.302 69.2118 67.6951L67.542 68.3069C65.3127 68.9914 65.1792 69.0324 63.7475 69.3426L62.1777 69.6375C60.3097 69.9001 59.8076 69.9708 57.6266 70.0863C57.3235 70.0966 57.0063 70.0853 56.6797 70.0497Z" fill="#0099FF"/>
<path d="M56.6797 70.0498C66.8229 69.6959 75.8043 64.3244 81.6188 56.2099C81.7671 56.0864 81.9648 55.9216 82.1131 55.7979C97.2712 42.3255 91.971 13.6732 72.661 4.70127C68.8747 2.34228 64.5932 0.806579 60.0254 0.30957C60.4865 0.36959 61.1013 0.449726 61.5625 0.509745C62.9139 0.744208 64.3114 0.986638 66.1722 1.52081L67.7364 2.01312C69.6051 2.69809 69.9419 2.82152 71.663 3.62327L73.2895 4.46498C75.3507 5.67622 75.3901 5.69934 76.4235 6.42631L78.0645 7.66047C78.8061 8.29273 79.7881 9.14463 80.4982 9.8121L82.0512 11.4303C82.6207 12.1088 83.3863 13.0091 83.9255 13.7118L85.2895 15.6682C85.719 16.3868 86.3074 17.3362 86.7072 18.0717L87.8059 20.3114C88.1117 21.0687 88.5416 22.0702 88.8175 22.8389L89.5949 25.3109C89.7816 26.1051 90.0575 27.1584 90.2137 27.9593L90.6264 30.6193C90.7161 31.7507 90.8403 33.2601 90.8719 34.3946L90.8067 37.1637C90.7264 37.9783 90.6497 39.068 90.5391 39.879L90.0778 42.5279C89.883 43.303 89.6516 44.3442 89.4284 45.1116L88.606 47.5978C88.3042 48.3277 87.9271 49.312 87.5987 50.0304L86.4544 52.3108C86.0503 52.9898 85.5335 53.9089 85.1043 54.5725L83.6848 56.6009C83.1791 57.2245 82.5223 58.0709 81.993 58.6745L80.3611 60.4005C79.7465 60.9661 78.9384 61.7334 78.3012 62.2734L76.5465 63.646C75.8021 64.1521 74.8124 64.8325 74.0459 65.3047L72.2845 66.2903C71.3714 66.7303 70.1459 67.302 69.2117 67.6951L67.542 68.3069C65.3126 68.9914 65.1791 69.0324 63.7474 69.3426L62.1776 69.6375C60.3096 69.9001 59.8075 69.9708 57.6266 70.0863C57.3235 70.0967 57.0063 70.0854 56.6797 70.0498Z" fill="#0094FF"/>
<path d="M56.6797 70.0497C65.7771 69.7323 73.9398 65.3787 79.7215 58.6299C79.8729 58.524 80.0747 58.3828 80.2261 58.2769C97.0053 45.7874 94.0018 12.4867 70.1156 3.27771C66.9939 1.7219 63.5973 0.698164 60.0254 0.30957C60.4865 0.36959 61.1013 0.449726 61.5625 0.509745C62.9139 0.744208 64.3114 0.986638 66.1722 1.52081L67.7364 2.01311C69.6051 2.69808 69.9419 2.82152 71.663 3.62327L73.2895 4.46498C75.3507 5.67622 75.3901 5.69934 76.4235 6.4263L78.0645 7.66047C78.8061 8.29273 79.7881 9.14464 80.4982 9.8121L82.0512 11.4303C82.6207 12.1088 83.3863 13.0091 83.9255 13.7118L85.2895 15.6683C85.719 16.3868 86.3074 17.3362 86.7072 18.0717L87.8059 20.3114C88.1117 21.0687 88.5416 22.0702 88.8175 22.8389L89.5949 25.3109C89.7816 26.1051 90.0575 27.1584 90.2137 27.9593L90.6264 30.6193C90.7161 31.7507 90.8403 33.2601 90.8719 34.3946L90.8067 37.1636C90.7264 37.9783 90.6497 39.068 90.5391 39.879L90.0778 42.5279C89.883 43.303 89.6516 44.3442 89.4284 45.1116L88.606 47.5978C88.3042 48.3277 87.9271 49.312 87.5987 50.0304L86.4544 52.3108C86.0503 52.9898 85.5335 53.9089 85.1043 54.5725L83.6848 56.6009C83.1791 57.2245 82.5223 58.0709 81.993 58.6745L80.3611 60.4005C79.7465 60.9661 78.9384 61.7334 78.3012 62.2734L76.5465 63.646C75.8021 64.1521 74.8124 64.8325 74.0459 65.3047L72.2845 66.2903C71.3714 66.7303 70.1459 67.302 69.2117 67.6951L67.542 68.3069C65.3126 68.9914 65.1791 69.0324 63.7474 69.3426L62.1776 69.6375C60.3096 69.9001 59.8075 69.9708 57.6266 70.0863C57.3235 70.0966 57.0063 70.0853 56.6797 70.0497Z" fill="#008FFF"/>
<path d="M78.6474 8.1337C75.0778 5.19606 71.5826 3.32036 67.3144 2.05178C64.9979 1.17741 62.5584 0.58459 60.0312 0.30957C60.4924 0.36959 61.1072 0.449726 61.5683 0.509745C62.9198 0.744208 64.3172 0.986638 66.1781 1.52081L67.7423 2.01311C69.611 2.69808 69.9477 2.82152 71.6689 3.62327L73.2954 4.46498C75.3566 5.67622 75.396 5.69934 76.4293 6.4263L78.0704 7.66047L79.1624 8.57415L78.6474 8.1337Z" fill="#008AFF"/>
<path d="M56.6797 70.049C64.6677 69.7703 71.9351 66.3798 77.5027 60.9883C77.6519 60.9037 77.8508 60.791 78.0001 60.7063C91.6752 52.222 91.0187 35.1684 90.7484 31.8359C90.8255 33.4322 90.8443 35.5651 90.8067 37.1629C90.7264 37.9775 90.6497 39.0673 90.5391 39.8783L90.0778 42.5272C89.883 43.3023 89.6516 44.3434 89.4284 45.1108L88.606 47.597C88.3042 48.327 87.9271 49.3113 87.5987 50.0297L86.4544 52.31C86.0503 52.989 85.5335 53.9082 85.1043 54.5718L83.6848 56.6001C83.1791 57.2237 82.5223 58.0701 81.993 58.6738L80.3611 60.3997C79.7465 60.9654 78.9384 61.7327 78.3012 62.2727L76.5465 63.6452C75.8021 64.1514 74.8124 64.8318 74.0459 65.3039L72.2845 66.2896C71.3714 66.7295 70.1459 67.3013 69.2117 67.6943L67.542 68.3061C65.3126 68.9906 65.1791 69.0317 63.7474 69.3418L62.1776 69.6367C60.3096 69.8994 59.8075 69.97 57.6266 70.0856C57.3235 70.0959 57.0063 70.0846 56.6797 70.049Z" fill="#008AFF"/>
<path d="M69.4702 2.65289C67.7526 1.98778 66.3164 1.50912 64.057 1.03092C62.7446 0.700972 61.4009 0.458542 60.0312 0.30957C60.4924 0.36959 61.1072 0.449726 61.5683 0.509745C62.9198 0.744208 64.3172 0.986638 66.1781 1.52081L67.7423 2.01311C68.3285 2.22798 69.112 2.50993 69.6916 2.74217L69.4702 2.65289Z" fill="#0085FF"/>
<path d="M56.6797 70.0491C63.4304 69.8136 69.6664 67.3556 74.7968 63.3456C74.9476 63.2772 75.1487 63.1859 75.2996 63.1174C82.49 59.5002 87.2251 53.1916 89.7754 43.8311C89.4658 44.9729 88.9775 46.474 88.606 47.5972C88.3042 48.3272 87.9271 49.3115 87.5987 50.0299L86.4544 52.3102C86.0503 52.9893 85.5335 53.9084 85.1043 54.572L83.6848 56.6003C83.1791 57.224 82.5223 58.0703 81.993 58.674L80.3611 60.3999C79.7465 60.9656 78.9384 61.7329 78.3012 62.2729L76.5465 63.6454C75.8021 64.1516 74.8124 64.832 74.0459 65.3041L72.2845 66.2898C71.3714 66.7298 70.1459 67.3015 69.2117 67.6945L67.542 68.3064C65.3126 68.9909 65.1791 69.0319 63.7474 69.342L62.1776 69.6369C60.3096 69.8996 59.8075 69.9703 57.6266 70.0858C57.3235 70.096 57.0063 70.0847 56.6797 70.0491Z" fill="#0085FF"/>
<path d="M56.6797 70.0489C61.9149 69.8662 66.8405 68.3471 71.181 65.8039C71.3268 65.7569 71.5213 65.6943 71.6671 65.6474C75.6831 64.1248 80.9092 61.379 85.7156 53.5947C85.1385 54.5172 84.3088 55.7086 83.6849 56.6C83.1792 57.2237 82.5224 58.07 81.993 58.6737L80.3611 60.3996C79.7466 60.9653 78.9385 61.7326 78.3013 62.2726L76.5466 63.6451C75.8022 64.1513 74.8125 64.8317 74.046 65.3038L72.2845 66.2895C71.3714 66.7295 70.146 67.3012 69.2118 67.6942L67.542 68.3061C65.3127 68.9906 65.1792 69.0316 63.7475 69.3417L62.1777 69.6366C60.3097 69.8993 59.8076 69.97 57.6266 70.0855C57.3235 70.0959 57.0063 70.0845 56.6797 70.0489Z" fill="#0080FF"/>
</g>
<mask id="mask12_296_10" style="mask-type:luminance" maskUnits="userSpaceOnUse" x="55" y="0" width="34" height="71">
<path d="M59.041 0.201172L60.0318 0.308999C75.8744 2.03266 88.2718 16.251 88.5153 33.9754C88.7805 53.2732 74.5315 69.4266 56.6861 70.0491L55.6953 69.9414C73.5407 69.3188 87.7897 53.1654 87.5246 33.8676C87.2811 16.1431 74.8836 1.92483 59.041 0.201172Z" fill="white"/>
</mask>
<g mask="url(#mask12_296_10)">
<path d="M59.0391 0.201172L60.0298 0.308999C61.3991 0.457971 62.7427 0.700271 64.055 1.03022L63.0642 0.92239C61.752 0.592444 60.4084 0.350144 59.0391 0.201172Z" fill="#0085FF"/>
<path d="M63.0625 0.921875L64.0533 1.0297C65.1591 1.30766 66.2427 1.64779 67.3007 2.04671L66.3099 1.93888C65.252 1.54003 64.1684 1.19983 63.0625 0.921875Z" fill="#008AFF"/>
<path d="M66.3047 1.93945L67.2955 2.04728C68.2565 2.40962 69.1964 2.82035 70.1127 3.277L69.1219 3.16917C68.2057 2.71253 67.2657 2.30179 66.3047 1.93945Z" fill="#008FFF"/>
<path d="M69.125 3.16895L70.1158 3.27677C70.9863 3.71056 71.8353 4.18569 72.6608 4.69994L71.67 4.59211C70.8445 4.07786 69.9954 3.60273 69.125 3.16895Z" fill="#0094FF"/>
<path d="M71.6719 4.59277L72.6627 4.7006C73.474 5.20603 74.2627 5.74928 75.0265 6.32825L74.0356 6.22043C73.2718 5.64146 72.4832 5.09821 71.6719 4.59277Z" fill="#0099FF"/>
<path d="M74.0391 6.21973L75.0299 6.32755C75.805 6.91501 76.5545 7.53925 77.2764 8.1979L76.2856 8.09007C75.5637 7.43142 74.8142 6.80719 74.0391 6.21973Z" fill="#009EFF"/>
<path d="M76.2812 8.08984L77.2721 8.19767C78.0265 8.88617 78.7508 9.61241 79.4424 10.3738L78.4517 10.266C77.7601 9.50459 77.0357 8.77834 76.2812 8.08984Z" fill="#00A3FF"/>
<path d="M78.4531 10.2666L79.4439 10.3744C80.1923 11.1984 80.9024 12.0636 81.5713 12.9668L80.5805 12.8589C79.9118 11.9558 79.2016 11.0906 78.4531 10.2666Z" fill="#00A8FF"/>
<path d="M80.5781 12.8584L81.5689 12.9662C82.3439 14.0129 83.0634 15.1105 83.7224 16.2541L82.7316 16.1463C82.0725 15.0027 81.3531 13.9051 80.5781 12.8584Z" fill="#00AEFF"/>
<path d="M82.7344 16.1465L83.7252 16.2543C84.6305 17.8254 85.4219 19.4834 86.0868 21.2154L85.096 21.1076C84.4311 19.3756 83.6397 17.7176 82.7344 16.1465Z" fill="#00B3FF"/>
<path d="M85.0938 21.1074L86.0845 21.2152C87.5908 25.139 88.4479 29.4424 88.5102 33.9751C88.5161 34.4029 88.5149 34.8291 88.5066 35.2537L87.5158 35.1459C87.5241 34.7213 87.5254 34.2951 87.5195 33.8674C87.4571 29.3346 86.6001 25.0312 85.0938 21.1074Z" fill="#00B8FF"/>
<path d="M87.5157 35.1465L88.5065 35.2543C88.4691 37.1739 88.2884 39.0592 87.9752 40.8976L86.9844 40.7898C87.2975 38.9514 87.4783 37.0661 87.5157 35.1465Z" fill="#00B3FF"/>
<path d="M86.9899 40.7891L87.9807 40.8969C87.7514 42.2427 87.4513 43.5634 87.0846 44.8541L86.0938 44.7463C86.4606 43.4556 86.7608 42.1349 86.9899 40.7891Z" fill="#00AEFF"/>
<path d="M86.0919 44.7471L87.0827 44.8549C86.7671 45.9653 86.4023 47.0535 85.9908 48.1164L85 48.0086C85.4115 46.9457 85.7763 45.8575 86.0919 44.7471Z" fill="#00A8FF"/>
<path d="M85.0028 48.0078L85.9936 48.1156C85.6105 49.1055 85.1869 50.0735 84.7252 51.017L83.7344 50.9092C84.1961 49.9657 84.6197 48.9977 85.0028 48.0078Z" fill="#00A3FF"/>
<path d="M83.7314 50.9092L84.7222 51.017C84.2741 51.9327 83.79 52.8252 83.2721 53.6925L82.2812 53.5847C82.7993 52.7175 83.2833 51.8248 83.7314 50.9092Z" fill="#009EFF"/>
<path d="M82.2767 53.585L83.2675 53.6928C82.7501 54.5591 82.1989 55.4001 81.6158 56.2135L80.625 56.1057C81.2081 55.2922 81.7594 54.4512 82.2767 53.585Z" fill="#0099FF"/>
<path d="M80.6279 56.1055L81.6187 56.2133C81.0203 57.0481 80.3884 57.854 79.7251 58.6282L78.7344 58.5204C79.3976 57.7461 80.0295 56.9403 80.6279 56.1055Z" fill="#0094FF"/>
<path d="M78.7348 58.5203L79.7255 58.6281C79.0228 59.4485 78.2848 60.2335 77.5142 60.9802L76.5234 60.8723C77.294 60.1256 78.0319 59.3406 78.7348 58.5203Z" fill="#008FFF"/>
<path d="M76.5221 60.873L77.5128 60.9809C76.6446 61.8222 75.735 62.6148 74.7877 63.3546L73.7969 63.2467C74.7442 62.507 75.6538 61.7144 76.5221 60.873Z" fill="#008AFF"/>
<path d="M73.7928 63.2461L74.7836 63.3539C73.6373 64.2491 72.436 65.0667 71.1861 65.7995L70.1953 65.6917C71.4451 64.9589 72.6465 64.1412 73.7928 63.2461Z" fill="#0085FF"/>
<path d="M70.2038 65.6914L71.1945 65.7992C66.8523 68.3449 61.9242 69.8657 56.6861 70.0484L55.6953 69.9407C60.9334 69.7578 65.8615 68.237 70.2038 65.6914Z" fill="#0080FF"/>
</g>
<path d="M50.8032 1.93242C67.4617 1.34966 81.1702 15.4924 81.4164 33.5111C81.6653 51.5253 68.3584 66.6107 51.6999 67.1904C51.1221 67.2106 50.5444 67.2307 48.8164 67.291C45.4307 73.0536 42.6671 77.7575 41.65 79.4886C40.5864 77.8301 37.6963 73.3235 34.1556 67.8025C32.5176 67.8597 32.03 67.8767 31.5423 67.8937C14.8835 68.4765 1.17133 54.3335 0.925311 36.3194C0.67635 18.3011 13.987 3.21544 30.6457 2.63574C37.3649 2.40122 44.0841 2.16682 50.8032 1.93242Z" fill="#00CEFF"/>
<mask id="mask13_296_10" style="mask-type:luminance" maskUnits="userSpaceOnUse" x="50" y="0" width="38" height="70">
<path d="M53.7821 0.00741875C54.7108 -0.00531669 55.9498 -0.00401102 56.8778 0.0301461C57.5265 0.0539842 58.389 0.136014 59.0349 0.200801C74.8775 1.92446 87.275 16.1428 87.5185 33.8672C87.7836 53.165 73.5347 69.3183 55.6892 69.941C53.5003 69.7028 51.7112 68.4709 51.6936 67.1901C68.3523 66.6104 81.6591 51.525 81.4102 33.5108C81.164 15.4921 67.4555 1.34941 50.797 1.93217C50.782 0.84247 52.0542 0.0676998 53.7821 0.00741875Z" fill="white"/>
</mask>
<g mask="url(#mask13_296_10)">
<path d="M53.7821 0.00769434C55.7898 -0.0198012 56.7061 -0.0324065 59.0349 0.201011C74.8775 1.92467 87.275 16.143 87.5185 33.8674C87.7836 53.1652 73.5347 69.3185 55.6892 69.9412C53.5003 69.703 51.7112 68.4711 51.6936 67.1903C68.3523 66.6107 81.6591 51.5252 81.4102 33.511C81.164 15.4924 67.4555 1.34962 50.797 1.93238C50.782 0.842748 52.0541 0.0679754 53.7821 0.00769434Z" fill="#00BDFF"/>
<path d="M51.703 67.2377C52.1342 66.753 53.2129 67.1333 53.8601 67.0885C69.8004 65.9865 86.428 47.5711 86.2083 31.2623C86.0195 17.2539 70.5202 1.29272 50.8203 1.70888C50.9697 0.73798 52.1827 0.0636544 53.79 0.00761843C54.2549 0.00121806 54.8748 -0.0072715 55.3397 -0.0136719C57.2729 0.0413191 57.5213 0.0483733 59.0428 0.200937C74.8854 1.9246 87.2829 16.143 87.5264 33.8674C87.7915 53.1651 73.5426 69.3185 55.6971 69.9411C53.5354 69.7059 51.7635 68.5014 51.703 67.2377Z" fill="#00BDFF"/>
<path d="M51.7022 67.3095C52.1228 66.8133 53.2166 67.2097 53.8657 67.167C69.8421 66.1142 87.1505 47.3564 86.9372 31.3262C86.731 15.8294 68.5077 0.844387 50.8281 1.63372C51.0269 0.703187 52.2184 0.0620387 53.7841 0.00737429C54.2489 0.000973918 54.8689 -0.00751564 55.3337 -0.013916C57.2669 0.041075 57.5153 0.0481291 59.0369 0.200693C74.8794 1.92435 87.2769 16.1427 87.5204 33.8671C87.7855 53.1649 73.5366 69.3182 55.6912 69.9409C53.5704 69.7101 51.825 68.5466 51.7022 67.3095Z" fill="#00B8FF"/>
<path d="M63.9017 64.0478C91.1024 48.7412 83.9859 9.78934 59.1779 2.88255C56.2885 2.0782 53.3923 1.86287 52.2812 1.80762C79.151 2.09296 99.8859 32.5269 72.905 57.9962C68.5155 62.1397 64.9157 63.7062 62.9817 64.5476C63.2577 64.3977 63.6279 64.2019 63.9017 64.0478Z" fill="#00C2FF"/>
<path d="M51.7109 67.3618C52.1246 66.8577 53.2297 67.269 53.8806 67.2292C68.1463 66.3572 85.4369 49.8812 87.5187 35.1758C87.1395 53.8899 73.1342 69.3322 55.6937 69.9407C53.6029 69.7133 51.8769 68.5792 51.7109 67.3618Z" fill="#00B3FF"/>
<path d="M51.7188 67.4141C52.1251 66.9019 53.2417 67.3257 53.8944 67.2878C68.3477 66.4489 83.3812 50.8018 86.9824 40.8203C84.2291 56.9026 71.3445 69.3947 55.6934 69.9408C53.6326 69.7166 51.9261 68.6115 51.7188 67.4141Z" fill="#00AEFF"/>
<path d="M67.4288 61.9502C71.9902 57.8221 84.1069 46.8567 81.0677 28.9033C77.824 9.74168 64.989 5.04407 57.3203 2.2373C87.5566 7.25553 94.5846 43.6844 68.7141 61.2962C68.2206 61.6322 67.5418 62.049 67.0345 62.3639C67.1529 62.2398 67.2999 62.0633 67.4288 61.9502Z" fill="#00C7FF"/>
<path d="M51.7266 67.4651C52.1257 66.9451 53.2536 67.3799 53.9081 67.3435C68.007 66.5576 82.0442 51.9901 86.0936 44.7324C82.0769 58.8874 70.0481 69.44 55.6915 69.9409C53.6599 69.7199 51.9727 68.6428 51.7266 67.4651Z" fill="#00A8FF"/>
<path d="M51.7422 67.5165C51.86 67.3619 52.1953 67.5037 52.3895 67.4983C70.3834 66.9933 84.8675 48.205 84.9992 48.0156C80.167 60.4919 68.9186 69.4802 55.6957 69.9416C53.6933 69.7237 52.0254 68.6742 51.7422 67.5165Z" fill="#00A3FF"/>
<path d="M69.2411 60.7149C88.7913 42.0607 84.1216 12.3736 60.1562 2.95996C85.2319 8.49838 94.6319 42.8069 69.249 60.7239C69.2516 60.7214 69.2409 60.7185 69.2411 60.7149Z" fill="#00CCFF"/>
<path d="M51.7578 67.5722C52.1419 67.0361 53.2947 67.4946 53.9533 67.4613C67.019 66.802 80.978 54.0358 83.7331 50.9111C78.3734 61.8614 67.872 69.516 55.6963 69.9408C53.7265 69.7264 52.0804 68.7074 51.7578 67.5722Z" fill="#009EFF"/>
<path d="M84.415 19.8006C80.3309 12.8021 68.6644 1.08576 50.8438 1.56422C51.086 0.671495 52.2565 0.0609113 53.7828 0.00761843C54.2477 0.00121806 54.8676 -0.0072715 55.3325 -0.0136719C57.2657 0.0413191 57.5141 0.0483733 59.0356 0.200937C70.8219 1.4833 80.7013 9.68113 85.088 21.0933C84.8861 20.7055 84.6262 20.1834 84.415 19.8006Z" fill="#00B3FF"/>
<path d="M72.2928 57.7849C87.79 40.3188 83.0709 13.638 62.7656 3.91992C66.5175 4.65374 81.2803 12.7274 83.6674 28.7472C85.6804 42.256 76.4102 55.2321 70.9998 59.1774C71.3876 58.7596 71.9144 58.2114 72.2928 57.7849Z" fill="#00D1FF"/>
<path d="M51.7734 67.6307C51.8387 67.539 52.0361 67.6257 52.1487 67.6236C67.1871 67.3385 82.1379 53.7223 82.2821 53.585C76.6051 63.0905 66.8527 69.5521 55.6943 69.9414C53.7581 69.7306 52.1347 68.7425 51.7734 67.6307Z" fill="#0099FF"/>
<path d="M82.4022 15.7149C80.3536 13.2452 69.2056 0.952851 50.8672 1.49819C51.148 0.641519 52.2982 0.0596071 53.7865 0.00762043C54.2514 0.00122005 54.8713 -0.0072715 55.3362 -0.0136719C57.2693 0.0413191 57.5178 0.0483733 59.0393 0.200937C69.0383 1.28887 77.665 7.35401 82.7298 16.1365C82.6315 16.0101 82.5025 15.8398 82.4022 15.7149Z" fill="#00AEFF"/>
<path d="M51.7969 67.7017C66.9845 67.137 80.4974 56.2119 80.6321 56.1016C74.8175 64.2161 65.8362 69.5875 55.6929 69.9414C53.798 69.7352 52.2026 68.7844 51.7969 67.7017Z" fill="#0094FF"/>
<path d="M73.7175 56.1965C85.4311 41.2507 84.7705 17.1302 65.1172 5.04492C71.1749 7.37218 81.4637 15.8653 83.2839 28.7481C85.3976 43.7073 74.8602 56.2085 72.5456 57.6187C72.8972 57.192 73.3765 56.6316 73.7175 56.1965Z" fill="#00D6FF"/>
<path d="M79.9006 12.199C79.405 11.724 67.57 0.576339 50.8906 1.42883C51.2095 0.610169 52.3372 0.058103 53.785 0.00761844C54.2499 0.00121806 54.8698 -0.0072715 55.3347 -0.0136719C57.2679 0.0413191 57.5163 0.0483733 59.0378 0.200937C67.7386 1.14761 75.4003 5.86292 80.5802 12.858C80.3764 12.6603 80.1058 12.3955 79.9006 12.199Z" fill="#00A8FF"/>
<path d="M51.8281 67.7824C65.8906 67.2399 78.2156 58.8772 78.7334 58.5215C72.9518 65.2704 64.789 69.6239 55.6916 69.9414C53.8439 69.7404 52.281 68.8313 51.8281 67.7824Z" fill="#008FFF"/>
<path d="M77.7949 9.74631C74.9657 7.61688 64.6664 0.718519 50.9219 1.35483C51.2783 0.577057 52.3812 0.0565356 53.785 0.00761843C54.2499 0.00121806 54.8698 -0.0072715 55.3347 -0.0136719C57.2678 0.0413191 57.5163 0.0483733 59.0378 0.200937C66.6091 1.02469 73.3935 4.70216 78.4405 10.2522C78.2468 10.1004 77.9901 9.89613 77.7949 9.74631Z" fill="#00A3FF"/>
<path d="M75.0291 54.5039C82.7745 43.3043 81.6427 32.0704 81.1114 28.8942C80.8063 27.0709 79.878 21.5224 76.7835 16.5244C74.3063 12.5234 71.5137 9.38824 68.4834 7.2061C67.9927 6.85278 67.2939 6.4152 66.9062 5.95117C85.3318 16.0347 88.6317 39.4993 73.9682 56.1655C74.2865 55.667 74.7082 55.0007 75.0291 54.5039Z" fill="#00DBFF"/>
<path d="M51.875 67.8839C64.7257 67.5207 76.0383 61.1509 76.5136 60.8799C70.946 66.2713 63.6786 69.6619 55.6905 69.9406C53.9033 69.7461 52.3825 68.8891 51.875 67.8839Z" fill="#008AFF"/>
<path d="M75.6472 7.66985C72.2629 5.54911 63.0833 0.680377 50.9688 1.27339C51.363 0.540875 52.4372 0.0549048 53.7913 0.00762043C54.2562 0.00122005 54.8761 -0.0072715 55.341 -0.0136719C57.2742 0.0413191 57.5226 0.0483733 59.0441 0.200937C65.5835 0.912424 71.5358 3.75275 76.2887 8.08972C76.0963 7.96381 75.8409 7.79394 75.6472 7.66985Z" fill="#009EFF"/>
<path d="M74.9404 54.7093C76.7573 50.6655 79.4025 46.9994 80.4543 42.607C81.8781 36.6606 81.559 32.1543 81.122 28.8928C79.7549 18.691 75.7794 14.5791 68.5625 7.11426C83.1125 15.4549 89.0287 38.2055 74.8503 55.0371C74.8773 54.9388 74.8972 54.8018 74.9404 54.7093Z" fill="#00DEFF"/>
<path d="M73.4004 5.87356C69.5241 3.85908 61.4616 0.57033 51.0156 1.17863C51.4488 0.499208 52.4877 0.0528149 53.7825 0.00762043C54.2474 0.00122005 54.8673 -0.0072715 55.3322 -0.0136719C57.2653 0.0413191 57.5138 0.0483733 59.0353 0.200937C64.582 0.804401 69.7065 2.93951 74.0349 6.22049C73.8446 6.11645 73.5914 5.97662 73.4004 5.87356Z" fill="#0099FF"/>
<path d="M51.9531 68.0281C61.6957 68.0081 71.6684 64.2443 73.8057 63.2373C68.6753 67.2473 62.4393 69.7053 55.6886 69.9408C53.9871 69.7557 52.5272 68.9703 51.9531 68.0281Z" fill="#0085FF"/>
<path d="M75.8694 53.3797C84.9889 35.7336 83.1634 22.1597 69.7656 7.99219C84.3183 18.0191 86.9983 39.075 75.618 53.9714C75.6935 53.7939 75.7809 53.551 75.8694 53.3797Z" fill="#00DEFF"/>
<path d="M76.3658 52.7951C81.9875 40.0559 86.1986 26.1793 70.9297 8.98047C84.066 19.2462 86.467 38.4995 76.3958 52.8125C76.3996 52.8028 76.3689 52.805 76.3658 52.7951Z" fill="#00DEFF"/>
<path d="M71.0388 4.3071C64.9818 1.71704 57.8985 0.565235 51.0938 1.06394C51.5665 0.449245 52.5596 0.0502025 53.7801 0.00762043C54.245 0.00122005 54.8649 -0.0072715 55.3298 -0.0136719C57.2629 0.0413191 57.5114 0.0483733 59.0329 0.200937C63.6008 0.697881 67.8823 2.23364 71.6686 4.59264C71.4797 4.50695 71.2286 4.3907 71.0388 4.3071Z" fill="#0094FF"/>
<path d="M77.3789 50.8716C87.5899 28.8848 76.2355 15.1281 71.9609 9.94922C83.8854 20.2639 85.9958 38.347 76.87 52.0122C77.0227 51.67 77.2261 51.2137 77.3789 50.8716Z" fill="#00DEFF"/>
<path d="M52.125 68.2642C58.5083 68.4347 66.3265 67.0924 70.1972 65.6963C65.8567 68.2395 60.9311 69.7587 55.696 69.9414C54.1386 69.7718 52.7836 69.0994 52.125 68.2642Z" fill="#0080FF"/>
<path d="M68.5078 2.93932C64.9337 1.67211 59.0344 0.293351 51.2266 0.921372C51.7362 0.387985 52.6669 0.0468044 53.7904 0.00761843C54.2552 0.00121806 54.8752 -0.0072715 55.34 -0.0136719C57.2732 0.0413191 57.5217 0.0483733 59.0432 0.200937C62.615 0.589531 66.0116 1.61326 69.1334 3.16908C68.9457 3.10011 68.6963 3.00613 68.5078 2.93932Z" fill="#008FFF"/>
<path d="M77.4708 50.9201C81.8597 40.5682 85.3002 26.6587 72.8438 10.8516C83.5368 20.6743 85.5377 37.906 77.4981 50.9338C77.5014 50.9253 77.4739 50.9287 77.4708 50.9201Z" fill="#00DEFF"/>
<path d="M78.3833 48.9271C85.4765 31.1854 79.0692 19.1963 73.6328 11.7217C83.3324 21.6524 85.1056 37.8549 77.849 50.2476C78.0093 49.8515 78.2246 49.3239 78.3833 48.9271Z" fill="#00DEFF"/>
<path d="M78.4459 48.9538C83.5863 35.4675 82.2828 23.9042 74.3438 12.5635C83.1719 21.9364 84.8581 37.7802 78.266 49.4174C78.32 49.2784 78.3928 49.0933 78.4459 48.9538Z" fill="#00DEFF"/>
<path d="M79.2524 46.8999C85.3214 29.4227 77.8001 17.7534 74.9688 13.3604C83.0675 22.8837 84.5421 37.0535 78.638 48.62C78.8223 48.104 79.0726 47.4176 79.2524 46.8999Z" fill="#00DEFF"/>
<path d="M65.7071 1.76798C61.2862 0.58731 56.4853 0.237838 51.4375 0.729099C51.9725 0.306805 52.8072 0.0418428 53.789 0.00762043C54.2539 0.00122005 54.8738 -0.0072715 55.3387 -0.0136719C57.2719 0.0413191 57.5203 0.0483733 59.0419 0.200937C61.569 0.475892 64.0084 1.06878 66.3249 1.94315C66.1396 1.89064 65.8928 1.81912 65.7071 1.76798Z" fill="#008AFF"/>
<path d="M79.2942 46.916C83.2389 34.9967 82.0457 24.5802 75.5391 14.1348C82.9511 23.1334 84.3615 37.003 78.9689 47.8632C79.0665 47.579 79.1997 47.2012 79.2942 46.916Z" fill="#00DEFF"/>
<path d="M79.3358 46.931C83.1051 35.0854 82.1262 25.5036 76.0625 14.8916C83.8906 25.3337 83.2186 38.9049 79.2816 47.0953C79.2978 47.046 79.32 46.9804 79.3358 46.931Z" fill="#00DEFF"/>
<path d="M80.0163 44.8124C84.252 29.566 78.6429 19.4321 76.5312 15.6172C82.6281 24.0391 83.843 36.3989 79.5544 46.3731C79.693 45.9049 79.8856 45.2828 80.0163 44.8124Z" fill="#04DEFF"/>
<path d="M80.0497 44.8218C83.4951 31.935 80.4454 23.2196 77.0078 16.3936C82.6361 24.7709 83.7372 36.257 79.8129 45.6559C79.8839 45.4056 79.9825 45.073 80.0497 44.8218Z" fill="#08DEFF"/>
<path d="M80.0813 44.8321C82.7265 34.6326 81.9218 26.3245 77.3906 17.0518C82.4983 25.0808 83.5338 35.7269 80.0931 44.8356C80.0939 44.8321 80.0832 44.8353 80.0813 44.8321Z" fill="#0CDEFF"/>
<path d="M62.4196 0.794409C59.8778 0.349322 56.6345 -0.0382274 51.8516 0.461655C52.363 0.196366 53.0303 0.0339403 53.7845 0.00762043C54.2494 0.00122005 54.8693 -0.0072715 55.3342 -0.0136719C57.2674 0.0413191 57.5158 0.0483733 59.0374 0.200937C60.4068 0.349975 61.7507 0.592339 63.0631 0.922285C62.8701 0.883948 62.6131 0.830591 62.4196 0.794409Z" fill="#0085FF"/>
<path d="M80.6496 42.6562C82.5474 33.81 81.636 25.8979 77.7812 17.7559C81.2702 23.3996 84.0176 33.7192 80.2774 44.2287C80.3891 43.7569 80.5478 43.1301 80.6496 42.6562Z" fill="#10DEFF"/>
<path d="M80.6759 42.6624C82.9237 31.8418 80.7895 24.6375 78.1484 18.4639C83.1457 27.3929 82.6303 37.2634 80.4816 43.5234C80.5399 43.265 80.622 42.9216 80.6759 42.6624Z" fill="#13DEFF"/>
<path d="M80.7052 42.6686C82.8702 31.8948 80.8014 24.7396 78.4922 19.1611C83.0687 27.6482 82.5281 37.2059 80.6745 42.8118C80.6837 42.7688 80.6966 42.7117 80.7052 42.6686Z" fill="#16DEFF"/>
<path d="M81.1398 40.4406C82.2477 33.2783 81.4865 26.549 78.8125 19.8682C81.42 24.85 83.3235 33.3033 80.8461 42.0883C80.9343 41.594 81.063 40.9368 81.1398 40.4406Z" fill="#19DEFF"/>
<path d="M81.1607 40.444C82.4633 31.6695 80.9521 25.7176 79.125 20.5928C83.3923 29.8153 81.8633 38.1866 81.0078 41.3576C81.0537 41.0836 81.1199 40.7189 81.1607 40.444Z" fill="#1CDEFF"/>
<path d="M81.1787 40.4481C81.9093 35.3113 82.2021 29.4408 79.4219 21.3369C83.4675 30.3763 81.5725 38.9874 81.1515 40.6219C81.1596 40.5698 81.1713 40.5004 81.1787 40.4481Z" fill="#1FDEFF"/>
<path d="M81.4865 38.1737C82.0148 32.5931 81.4314 27.3323 79.7031 22.0908C80.768 24.5528 83.0545 31.209 81.2909 39.8213C81.3496 39.327 81.4397 38.6692 81.4865 38.1737Z" fill="#22DEFF"/>
<path d="M81.5067 38.1756C82.1274 31.1427 81.0989 26.7809 79.9922 22.916C82.4506 29.538 82.1251 35.3153 81.4191 38.9957C81.4453 38.7497 81.4849 38.4221 81.5067 38.1756Z" fill="#24DEFF"/>
<path d="M58.224 0.121586C56.7799 0.0113428 55.1352 -0.0665072 52.8984 0.108001C53.1761 0.0527488 53.4736 0.0185252 53.7859 0.00761843C54.2508 0.00121806 54.8707 -0.0072715 55.3356 -0.0136719C57.3285 0.0430172 57.4478 0.0463483 58.6691 0.1626L58.224 0.121586Z" fill="#0080FF"/>
<path d="M81.6838 35.8579C81.9208 29.8597 80.7609 25.596 80.2656 23.7754C82.5843 30.2963 81.8457 35.7877 81.5304 38.1325C81.5764 37.4502 81.6571 36.5413 81.6838 35.8579Z" fill="#27DEFF"/>
<path d="M81.6973 35.8598C81.8665 30.5556 81.1571 27.448 80.5312 24.7061C81.2597 27.208 82.3605 30.989 81.6296 37.1149C81.6499 36.7384 81.6852 36.2367 81.6973 35.8598Z" fill="#29DEFF"/>
<path d="M81.7112 35.8609C81.7928 32.4981 81.6737 29.9013 80.8125 25.8164C81.1995 27.2359 82.2276 31.0067 81.7034 36.0606C81.7057 36.0008 81.7097 35.9209 81.7112 35.8609Z" fill="#2CDEFF"/>
<path d="M81.7558 33.5047C81.6756 30.7305 81.4997 29.5522 81.1094 27.1514C81.7021 30.1256 81.8698 31.5397 81.7646 34.5905C81.762 34.2647 81.7652 33.8302 81.7558 33.5047Z" fill="#2EDEFF"/>
<path d="M81.6532 31.1535C81.6091 30.6314 81.5296 29.9373 81.4766 29.416C81.5703 30.2549 81.6821 31.3757 81.7253 32.2187C81.7037 31.8991 81.6803 31.4726 81.6532 31.1535Z" fill="#30DEFF"/>
</g>
<path d="M62.475 24.6625C60.5438 26.125 57.2812 28.6 55.2188 30.1562C53.1562 31.7312 51.2812 33.1 51.0563 33.2125C50.325 33.6062 49.2375 33.475 48.4313 32.9125C48.0188 32.6312 45.4688 30.7188 42.7313 28.6375C40.0125 26.5562 37.4062 24.6625 36.9375 24.4187C36.1875 24.025 35.85 23.9687 34.0312 23.9687C32.0438 23.9687 31.9313 23.9875 30.825 24.5875C30.1875 24.9437 29.4563 25.45 29.1938 25.7125C28.9313 25.9937 25.6313 31.1125 21.8625 37.0937C15.3563 47.3875 15 48.0062 15 48.85C15 49.5812 15.0938 49.825 15.5813 50.2937C16.05 50.7812 16.2938 50.875 17.0438 50.875C17.55 50.875 18.1125 50.7437 18.375 50.5562C18.6375 50.3875 21.9188 47.8562 25.6875 44.9688C29.4563 42.0625 32.7188 39.5875 32.9438 39.475C33.45 39.1937 34.5938 39.1937 35.1 39.4562C35.3063 39.5687 37.8938 41.5375 40.8563 43.8437C43.8188 46.15 46.6125 48.2125 47.0813 48.4562C47.8125 48.85 48.1688 48.9062 49.9688 48.9062C51.9563 48.9062 52.0688 48.8875 53.2313 48.2687C53.8875 47.9125 54.675 47.3125 54.975 46.9562C55.275 46.5812 58.5563 41.4812 62.2688 35.5937C68.6625 25.4687 69 24.8875 69 24.0437C69 23.2937 68.9063 23.05 68.4188 22.5812C67.9313 22.0937 67.7063 22 66.9188 22C66.0188 22 65.9063 22.075 62.475 24.6625Z" fill="#16437E"/>
</svg>
