<svg width="1437" height="950" viewBox="0 0 1437 950" fill="none" xmlns="http://www.w3.org/2000/svg">
<path opacity="0.53" d="M1361.59 949.996H1361.09C1341.09 918.122 1321.47 885.494 1301.92 852.976C1237.4 745.651 1173.59 639.501 1098.85 565.61C926.536 395.236 696.047 396.433 264.701 949.996H264.155C695.883 395.836 926.593 394.672 1099.1 565.237C1173.87 639.169 1237.7 745.34 1302.24 852.694C1321.84 885.31 1341.52 918.035 1361.59 949.996M1378.58 949.996H1378.06C1352.54 912.723 1327.53 874.022 1302.54 835.368C1233.2 728.076 1164.08 621.13 1084.86 546.042C899.057 369.949 657.544 369.168 226.916 949.996H226.382C657.375 368.575 899.109 369.385 1085.11 545.666C1164.37 620.791 1233.5 727.758 1302.86 835.072C1327.91 873.831 1352.99 912.637 1378.58 950L1378.58 949.996ZM1398.59 949.996H1398.06C1366.63 907.799 1335.78 863.186 1304.86 818.472C1230.29 710.638 1155.32 602.221 1070.86 525.73C870.981 344.716 617.843 342.597 190.873 949.996H190.348C617.656 342.004 871.016 344.148 1071.09 525.343C1155.59 601.867 1230.58 710.305 1305.16 818.162C1336.16 862.984 1367.08 907.709 1398.59 949.996ZM1421.65 949.996H1421.1C1383.49 903.449 1346.4 853.113 1309.06 802.416C1228.7 693.337 1147.13 582.596 1056.48 504.427C842.043 319.508 576.753 317.02 156.624 949.996H156.115C576.555 316.431 842.069 318.944 1056.71 504.036C1147.39 582.231 1228.98 692.994 1309.35 802.094C1346.78 852.907 1383.95 903.359 1421.65 949.996H1421.65ZM1437 937.588V938.257C1396.52 891.16 1356.21 839.584 1315.39 787.35C1228.52 676.188 1139.33 562.059 1041.3 481.891C811.949 294.325 534.129 292.789 124.249 949.996H123.751C533.919 292.203 811.967 293.758 1041.52 481.493C1139.58 561.694 1228.79 675.841 1315.68 787.021C1356.4 839.132 1396.62 890.589 1437 937.591V937.588ZM1437 906.36V907.018C1399.79 865.063 1362.29 819.648 1324.16 773.473C1229.85 659.268 1131.72 540.431 1024.8 457.883C780.353 269.168 489.861 270.267 93.8244 949.993H93.3387C489.64 269.685 780.361 268.604 1025.02 457.479C1131.97 540.051 1230.12 658.91 1324.44 773.133C1362.47 819.192 1399.88 864.495 1437 906.364V906.36ZM1437 875.049V875.7C1403.83 839.407 1370.11 800.608 1335.73 761.039C1232.89 642.701 1124.11 517.522 1006.41 432.206C746.879 244.08 443.906 249.836 65.4437 949.993H64.9695C443.667 249.264 746.874 243.516 1006.61 431.793C1124.35 517.139 1233.15 642.336 1336.01 760.692C1370.29 800.149 1403.92 838.846 1437 875.049H1437ZM1437 843.666V844.306C1408.8 814.329 1379.99 782.7 1350.57 750.398C1237.94 626.735 1116.31 493.19 985.496 404.713C711.124 219.15 396.292 231.877 39.1927 949.996H38.7299C396.042 231.309 711.104 218.586 985.688 404.297C1116.54 492.799 1238.19 626.362 1350.84 750.044C1380.17 782.244 1408.88 813.776 1437 843.666ZM1437 812.21V812.843C1414.92 790.011 1392.34 766.26 1369.3 742.014C1245.51 611.77 1108.22 467.306 961.414 375.354C672.71 194.528 347.19 216.887 15.2465 949.996H14.7924C346.923 216.323 672.676 193.964 961.595 374.928C1108.44 466.901 1245.76 611.386 1369.56 741.652C1392.51 765.804 1415 789.465 1437 812.214L1437 812.21ZM1437 780.69V781.315C1422.49 766.715 1407.73 751.758 1392.72 736.547C1256.46 598.468 1099.85 439.777 933.511 344.163C633.362 171.638 301.462 204.583 0 934.551V933.466C301.505 203.997 633.46 171.161 933.68 343.729C1100.07 439.372 1256.69 598.085 1392.98 736.182C1407.9 751.302 1422.58 766.173 1437 780.693V780.69ZM1437 749.111V749.733C1432.03 744.863 1427.03 739.953 1421.99 735.01C1272.22 587.994 1091.5 410.602 901.17 311.311C596.239 152.229 266.62 193.754 0 881.85V880.718C266.684 193.176 596.339 151.756 901.328 310.867C1091.7 410.183 1272.45 587.596 1422.24 734.634C1427.2 739.494 1432.11 744.321 1437 749.111ZM1437 717.479V718.093C1276.77 564.803 1074.22 375.311 863.819 277.079C556.957 133.804 233.38 184.762 0 825.306V824.127C233.469 184.188 557.063 133.338 863.963 276.627C1074.31 374.841 1276.79 564.21 1437 717.479ZM1437 685.792V686.403C1268 528.583 1046.67 334.498 820.997 241.889C515.741 116.627 202.519 177.152 0 764.232V762.988C202.637 176.569 515.859 116.164 821.12 241.433C1046.75 334.021 1268.01 527.997 1437 685.795V685.792ZM1437 654.065V654.669C1241.37 476.211 969.056 254.178 704.836 185.587C428.832 113.944 161.677 209.837 0 697.777V696.494C161.803 209.226 428.935 113.478 704.916 185.117C969.105 253.697 1241.36 475.614 1437 654.065ZM1437 622.291V622.891C1237.63 445.095 952.197 226.942 680.251 160.925C405.463 94.2175 144.464 182.908 0 625.632V624.341C144.619 182.3 405.584 93.7547 680.332 160.451C952.238 226.461 1237.61 444.506 1437 622.291ZM1437 590.474V591.071C1234.42 414.345 936.767 200.714 657.673 136.715C548.861 111.764 442.874 109.558 346.451 141.159C250.038 172.755 163.185 238.157 92.6288 348.418C57.4138 403.451 26.2597 469.659 0 548.414V547.134C26.1965 468.821 57.2414 402.93 92.3127 348.125C162.927 237.778 249.854 172.321 346.345 140.696C442.828 109.078 548.875 111.279 657.745 136.245C936.801 200.234 1234.39 413.766 1437 590.478V590.474ZM1437 558.617V559.206C1220.96 374.725 890.119 153.372 592.322 104.283C490.177 87.4455 391.921 90.8767 303.525 123.019C215.141 155.158 136.612 216.005 73.9048 313.994C45.9494 357.685 21.1382 408.762 0 467.964V466.745C21.0721 407.938 45.777 357.168 73.5915 313.701C136.351 215.625 214.949 154.728 303.413 122.56C391.863 90.3994 490.174 86.9646 592.373 103.81C890.139 152.895 1220.91 374.147 1437 558.621V558.617ZM1437 526.721V527.306C1280 395.999 1059.06 247.768 834.349 156.832C666.442 88.8845 496.437 52.9275 349.443 79.9323C202.479 106.933 78.5147 196.875 2.65557 380.716C1.76176 382.882 0.879442 385.062 0 387.249V386.15C0.761609 384.259 1.52897 382.372 2.30207 380.499C78.2272 196.499 202.295 106.478 349.383 79.4587C496.442 52.443 666.511 88.4108 834.473 156.38C1059.12 247.287 1279.99 395.442 1437 526.724V526.721ZM1437 494.799V495.377C1269.18 357.829 1024.73 203.694 780.879 116.829C614.857 57.6893 449.125 29.7372 308.084 59.4428C178.012 86.8453 68.9385 163.29 0 309.551V308.582C69.0219 162.657 178.047 86.3464 308.017 58.9728C449.125 29.2527 614.914 57.212 780.991 116.37C1024.77 203.209 1269.16 357.276 1437 494.799ZM1437 462.84V463.419C1258.04 319.591 988.059 159.862 724.865 78.3415C561.573 27.7703 400.902 7.29891 266.224 39.4197C155.641 65.7954 62.5927 127.64 0 237.384V236.534C62.6502 127.04 155.656 65.3001 266.149 38.9461C400.888 6.81081 561.619 27.2858 724.965 77.8787C988.094 159.377 1258 319.038 1437 462.844V462.84ZM1437 430.857V431.432C1246.77 281.45 949.568 116.667 667.301 41.7048C507.447 -0.749371 352.392 -14.3946 224.298 19.7727C133.258 44.0549 55.8446 92.5073 0 171.927V171.182C55.8791 91.9288 133.253 43.5632 224.215 19.299C352.366 -14.8863 507.478 -1.23747 667.385 41.2311C949.588 116.179 1246.72 280.89 1437 430.857ZM303.594 949.993C733.374 423.517 953.677 420.017 1113.36 584.273C1184.22 657.167 1243.14 763.071 1303.14 870.927C1317.82 897.317 1332.56 923.823 1347.57 949.993H1347.08C1332.13 923.91 1317.44 897.495 1302.81 871.195C1242.82 763.364 1183.92 657.485 1113.1 584.638C953.611 420.578 733.53 424.11 304.152 949.993H303.594Z" fill="rgba(255, 255, 255, 0.2)"/>
</svg>
